<svg width="642.480713" height="167.508301" viewBox="0 0 642.481 167.508" fill="none" xmlns="http://www.w3.org/2000/svg" xmlns:xlink="http://www.w3.org/1999/xlink">
	<desc>
			Created with Pixso.
	</desc>
	<defs>
		<filter id="filter_198_511_dd" x="0.000000" y="0.000000" width="642.480713" height="167.508301" filterUnits="userSpaceOnUse" color-interpolation-filters="sRGB">
			<feFlood flood-opacity="0" result="BackgroundImageFix"/>
			<feColorMatrix in="SourceAlpha" type="matrix" values="0 0 0 0 0 0 0 0 0 0 0 0 0 0 0 0 0 0 127 0" result="hardAlpha"/>
			<feOffset dx="0" dy="5"/>
			<feGaussianBlur stdDeviation="0"/>
			<feComposite in2="hardAlpha" operator="out" k2="-1" k3="1"/>
			<feColorMatrix type="matrix" values="0 0 0 0 0.72549 0 0 0 0 0.12549 0 0 0 0 0.21961 0 0 0 1 0"/>
			<feBlend mode="normal" in2="BackgroundImageFix" result="effect_dropShadow_1"/>
			<feBlend mode="normal" in="SourceGraphic" in2="effect_dropShadow_1" result="shape"/>
		</filter>
	</defs>
	<g filter="url(#filter_198_511_dd)">
		<path id="Guide to Pleasant Experiences" d="M106.67 3.7C107.81 3.23 109.06 3 110.41 3C111.71 3 112.93 3.23 114.08 3.7C115.22 4.11 116.21 4.71 117.04 5.49C117.93 6.22 118.6 7.1 119.07 8.14C119.59 9.13 119.85 10.2 119.85 11.34C119.85 12.54 119.59 13.66 119.07 14.7C118.6 15.68 117.93 16.57 117.04 17.35C116.21 18.08 115.22 18.67 114.08 19.14C112.93 19.56 111.71 19.77 110.41 19.77C109.06 19.77 107.81 19.56 106.67 19.14C105.52 18.67 104.51 18.08 103.63 17.35C102.79 16.57 102.14 15.68 101.68 14.7C101.16 13.66 100.9 12.54 100.9 11.34C100.9 10.2 101.16 9.13 101.68 8.14C102.14 7.1 102.79 6.22 103.63 5.49C104.51 4.71 105.52 4.11 106.67 3.7ZM36.42 29.59L47.73 26.01C48.56 25.69 49.18 25.15 49.6 24.37C50.01 23.48 50.07 22.63 49.75 21.79C48.87 19.3 47.73 17.14 46.32 15.32C44.92 13.5 43.33 11.99 41.56 10.8C39.85 9.6 37.98 8.72 35.95 8.14C33.97 7.52 31.94 7.21 29.86 7.21C26.54 7.21 23.21 7.94 19.88 9.39Q19.35 9.63 18.83 9.89Q14.55 12.03 11.07 15.79Q7.24 20 4.98 26.16Q2.72 32.32 3.03 40.28C3.19 43.66 3.71 47.07 4.59 50.5Q5.7 54.55 7.82 57.97Q8.39 58.9 9.04 59.78Q9.18 59.97 9.33 60.15Q12.4 63.95 17.31 66.25C20.79 67.87 25.18 68.54 30.49 68.28C33.45 68.18 36.03 67.68 38.21 66.8C40.39 65.86 42.24 64.69 43.75 63.29C45.31 61.83 46.56 60.22 47.49 58.45C48.48 56.63 49.23 54.79 49.75 52.92C50.33 50.99 50.69 49.09 50.85 47.22Q51.16 44.41 51.16 42.07C51.16 41.35 51.13 40.67 51.08 40.05C51.08 39.42 51.05 38.85 51 38.33C50.95 37.45 50.61 36.72 49.99 36.15C49.36 35.57 48.61 35.31 47.73 35.37L31.74 35.68C30.75 35.68 29.94 36.04 29.32 36.77C28.69 37.45 28.43 38.28 28.54 39.27L28.69 40.44C28.8 41.32 29.19 42.05 29.86 42.62C30.54 43.14 31.32 43.35 32.2 43.24L33.61 43.17C33.76 43.17 33.89 43.22 34 43.32C34.1 43.43 34.15 43.56 34.15 43.71C34.15 44.23 34.1 45.01 34 46.05C33.95 47.09 33.69 48.11 33.22 49.09C32.75 50.08 32.05 50.91 31.11 51.59C30.18 52.27 28.9 52.53 27.29 52.37C26.3 52.27 25.42 51.88 24.64 51.2C23.91 50.47 23.29 49.59 22.77 48.55C22.25 47.46 21.83 46.23 21.52 44.88C21.21 43.48 21.02 42.05 20.97 40.59C20.87 38.1 21.05 35.89 21.52 33.96C22.04 32.04 22.69 30.43 23.47 29.13C24.3 27.83 25.21 26.86 26.2 26.24C27.24 25.56 28.23 25.23 29.16 25.23Q30.05 25.23 30.74 25.6Q31.79 26.18 32.36 27.64C32.67 28.42 33.19 29.02 33.92 29.44Q34.35 29.64 34.8 29.71Q35.57 29.84 36.42 29.59ZM335.18 9.31C334.66 9.89 334.4 10.56 334.4 11.34L333.62 64.3C333.62 65.19 333.93 65.97 334.56 66.64C335.18 67.27 335.93 67.58 336.82 67.58L350.55 67.58C351.43 67.58 352.18 67.27 352.81 66.64C353.43 65.97 353.74 65.19 353.74 64.3L353.74 50.81C353.74 50.55 353.93 50.37 354.29 50.26C357.72 50.16 360.76 49.51 363.42 48.31C366.12 47.07 368.38 45.48 370.2 43.56C372.07 41.63 373.48 39.45 374.41 37C375.4 34.56 375.9 32.06 375.9 29.52C375.9 26.81 375.32 24.16 374.18 21.56C373.04 18.91 371.24 16.57 368.8 14.54C366.41 12.46 363.34 10.8 359.59 9.55C355.85 8.25 351.4 7.6 346.26 7.6Q344.15 7.6 341.89 7.75C340.38 7.81 338.82 7.96 337.21 8.22C336.38 8.33 335.7 8.69 335.18 9.31ZM379.34 10.25C378.77 10.82 378.48 11.55 378.48 12.43L379.03 64.85C379.03 65.73 379.34 66.49 379.97 67.11C380.59 67.68 381.34 68 382.23 68.05L392.21 68.13C393.04 68.13 393.82 67.81 394.55 67.19C395.18 66.46 395.46 65.68 395.41 64.85L393.62 11.81C393.56 10.87 393.2 10.12 392.52 9.55C391.95 8.98 391.17 8.69 390.18 8.69L381.53 9.16C380.64 9.26 379.91 9.63 379.34 10.25ZM147.5 66.57C149.47 65.84 150.93 64.95 151.87 63.91L151.94 65.32C152 66.2 152.31 66.93 152.88 67.5C153.5 68.07 154.26 68.36 155.14 68.36L164.58 68.36C165.46 68.36 166.22 68.05 166.84 67.42C167.47 66.8 167.78 66.05 167.78 65.16L167.93 12.2Q167.93 11.36 167.6 10.68Q167.37 10.23 167 9.86C166.27 9.24 165.49 8.95 164.66 9L154.44 9.24C153.5 9.24 152.75 9.57 152.18 10.25C151.55 10.87 151.27 11.65 151.32 12.59L151.79 26.71C151.79 26.86 151.71 27.02 151.55 27.18C151.35 27.28 151.16 27.28 151.01 27.18C147.68 25.36 144.22 24.45 140.63 24.45C138.29 24.45 136.06 24.89 133.92 25.77C131.79 26.6 129.89 27.9 128.23 29.67C126.62 31.44 125.32 33.73 124.33 36.54Q122.85 40.67 122.93 46.36C122.98 50.42 123.55 53.83 124.64 56.58C125.79 59.29 127.22 61.47 128.93 63.13C130.7 64.75 132.65 65.89 134.78 66.57C136.92 67.24 139.02 67.58 141.1 67.58C143.44 67.58 145.57 67.24 147.5 66.57ZM245.04 12.02Q244.33 12.41 243.85 13.21L234.96 28.11C234.65 28.58 234.49 29.13 234.49 29.75L234.49 34.59C234.49 35.47 234.83 36.22 235.5 36.85Q235.97 37.31 236.53 37.55Q237.1 37.78 237.77 37.78L238.16 37.78C238.1 38.82 238.08 39.86 238.08 40.9L238.08 43.95Q238.08 47.46 238.16 50.73C238.26 52.92 238.39 54.89 238.55 56.66C238.75 58.43 239.01 59.96 239.33 61.26C239.64 62.51 240.03 63.42 240.5 63.99C241.22 64.93 242.19 65.68 243.38 66.25C244.58 66.83 245.85 67.29 247.2 67.66C248.61 67.97 250.04 68.18 251.49 68.28C252.95 68.39 254.3 68.44 255.55 68.44L257.11 68.44C257.58 68.44 258.02 68.41 258.44 68.36C259.32 68.31 260.02 68 260.54 67.42C261.11 66.85 261.43 66.15 261.48 65.32L262.1 54.63C262.21 53.64 261.87 52.81 261.09 52.14C260.36 51.41 259.5 51.12 258.51 51.28C257.37 51.38 256.28 51.25 255.24 50.89C254.2 50.47 253.6 49.46 253.44 47.85C253.39 47.43 253.34 46.91 253.29 46.29L253.29 41.22C253.34 40.23 253.39 39.16 253.44 38.02Q253.44 37.74 253.58 37.61Q253.72 37.47 253.99 37.47L257.58 37.47C258.46 37.42 259.19 37.11 259.76 36.54C260.39 35.91 260.7 35.16 260.7 34.27L260.85 25.38C260.96 24.5 260.65 23.74 259.92 23.12C259.24 22.44 258.49 22.13 257.66 22.18L254.77 22.18C254.61 22.18 254.48 22.13 254.38 22.03C254.28 21.82 254.22 21.66 254.22 21.56Q254.38 19.61 254.46 17.97Q254.54 16.26 254.61 14.93C254.67 14.05 254.38 13.24 253.76 12.51C252.98 11.84 252.17 11.5 251.34 11.5L246.58 11.65Q245.71 11.65 245.04 12.02ZM623.94 11.65C622.74 11.65 621.83 12.17 621.21 13.21L612.31 28.11C612 28.58 611.84 29.13 611.84 29.75L611.84 34.59C611.84 35.47 612.18 36.22 612.86 36.85C613.48 37.47 614.24 37.78 615.12 37.78L615.51 37.78C615.46 38.82 615.43 39.86 615.43 40.9L615.43 43.95Q615.43 47.46 615.51 50.73C615.62 52.92 615.75 54.89 615.9 56.66Q616.21 59.31 616.68 61.26C616.99 62.51 617.38 63.42 617.85 63.99C618.58 64.93 619.54 65.68 620.74 66.25C621.93 66.83 623.21 67.29 624.56 67.66Q626.67 68.13 628.85 68.28C630.31 68.39 631.66 68.44 632.9 68.44L634.46 68.44C634.93 68.44 635.38 68.41 635.79 68.36C636.68 68.31 637.38 68 637.9 67.42C638.47 66.85 638.78 66.15 638.83 65.32L639.46 54.63C639.56 53.64 639.22 52.81 638.44 52.14C637.71 51.41 636.86 51.12 635.87 51.28C634.73 51.38 633.63 51.25 632.59 50.89C631.55 50.47 630.96 49.46 630.8 47.85C630.75 47.43 630.7 46.91 630.64 46.29L630.64 41.22C630.7 40.23 630.75 39.16 630.8 38.02Q630.8 37.74 630.94 37.61Q631.07 37.47 631.34 37.47L634.93 37.47C635.82 37.42 636.55 37.11 637.12 36.54Q637.58 36.07 637.82 35.51Q638.05 34.94 638.05 34.27L638.21 25.38C638.31 24.5 638 23.74 637.27 23.12C636.6 22.44 635.84 22.13 635.01 22.18L632.13 22.18C631.97 22.18 631.84 22.13 631.74 22.03C631.63 21.82 631.58 21.66 631.58 21.56C631.68 20.26 631.76 19.06 631.81 17.97Q631.89 16.26 631.97 14.93C632.02 14.05 631.74 13.24 631.11 12.51C630.33 11.84 629.53 11.5 628.69 11.5L623.94 11.65ZM305.74 53.85C306.99 50.84 307.61 47.64 307.61 44.26C307.61 40.36 306.96 36.93 305.66 33.96Q303.71 29.52 300.51 26.55C298.38 24.52 295.96 23.02 293.26 22.03C290.61 20.99 287.88 20.47 285.07 20.47C282.37 20.47 279.71 20.96 277.11 21.95C274.51 22.94 272.2 24.42 270.17 26.4Q267.13 29.36 265.26 33.88C264.06 36.9 263.46 40.46 263.46 44.57C263.46 47.95 264.01 51.15 265.1 54.16Q266.82 58.61 269.7 61.96C271.68 64.15 273.97 65.89 276.57 67.19C279.17 68.44 281.95 69.06 284.91 69.06C287.88 69.06 290.71 68.41 293.42 67.11C296.17 65.81 298.59 64.04 300.67 61.81C302.8 59.52 304.49 56.87 305.74 53.85ZM596.28 67.97L605.41 68.2C606.24 68.2 606.97 67.94 607.59 67.42C608.21 66.9 608.58 66.2 608.68 65.32C608.94 63.08 609.18 60.51 609.39 57.6Q609.78 53.23 609.78 48.47C609.78 45.19 609.57 41.97 609.15 38.8C608.79 35.63 608.09 32.77 607.05 30.22C606.06 27.67 604.65 25.59 602.83 23.98C601.07 22.37 598.78 21.51 595.97 21.4C593.63 21.3 591.39 21.61 589.26 22.34C587.13 23.07 585.52 23.95 584.43 24.99C584.22 25.2 584.03 25.25 583.88 25.15C583.72 25.1 583.59 24.94 583.49 24.68C583.39 24 583.1 23.43 582.63 22.96C582.01 22.34 581.23 22.03 580.29 22.03L572.57 22.11C571.69 22.11 570.93 22.42 570.31 23.04C569.68 23.67 569.37 24.42 569.37 25.3L569.68 65.01C569.68 65.89 570 66.64 570.62 67.27C571.24 67.89 572 68.18 572.88 68.13L582.32 68.13C583.2 68.13 583.96 67.81 584.58 67.19C585.21 66.57 585.52 65.79 585.52 64.85L585.52 57.28Q585.59 54.55 585.75 51.82Q585.91 49.09 586.22 46.6C586.43 44.88 586.69 43.4 587 42.15C587.31 40.9 587.7 39.97 588.17 39.34C588.64 38.67 589.18 38.43 589.81 38.64C590.53 38.9 591.13 39.6 591.6 40.75C592.07 41.89 592.43 43.3 592.69 44.96C592.95 46.62 593.14 48.44 593.24 50.42Q593.4 53.38 593.4 56.27C593.4 57.88 593.37 59.42 593.32 60.87Q593.24 62.98 593.16 64.62C593.16 65.55 593.45 66.33 594.02 66.96C594.59 67.53 595.34 67.87 596.28 67.97ZM68.97 21.87L57.81 21.87C56.93 21.87 56.2 22.16 55.63 22.73C55.06 23.25 54.72 23.95 54.61 24.84C54.46 26.66 54.33 28.55 54.22 30.53C54.12 32.51 54.07 34.53 54.07 36.61Q54.07 39.34 54.15 42.15Q54.3 44.88 54.61 47.61C55.03 51.56 55.78 54.87 56.88 57.52C57.97 60.12 59.24 62.2 60.7 63.76C62.21 65.32 63.82 66.44 65.53 67.11C67.3 67.74 69.04 68.05 70.76 68.05C72.79 68.05 74.69 67.71 76.45 67.03C78.27 66.36 79.76 65.53 80.9 64.54C81.11 64.33 81.29 64.28 81.45 64.38C81.65 64.43 81.76 64.59 81.76 64.85L81.76 64.93C81.81 64.93 81.84 64.95 81.84 65.01C81.89 65.63 82.17 66.23 82.69 66.8C83.32 67.42 84.1 67.74 85.03 67.74L94.47 67.66C95.36 67.66 96.11 67.35 96.73 66.72C97.36 66.1 97.67 65.34 97.67 64.46L97.44 25.38C97.38 24.5 97.07 23.77 96.5 23.2C95.93 22.57 95.2 22.24 94.32 22.18L83.16 21.72C82.23 21.72 81.42 22.03 80.74 22.65C80.12 23.28 79.81 24.06 79.81 24.99L79.81 27.57C79.81 29.07 79.78 30.74 79.73 32.56C79.73 34.38 79.68 36.2 79.57 38.02C79.47 39.84 79.31 41.61 79.11 43.32C78.9 44.99 78.64 46.44 78.33 47.69C78.01 48.89 77.62 49.82 77.16 50.5C76.69 51.17 76.14 51.38 75.52 51.12C74.79 50.86 74.19 50.16 73.72 49.02C73.26 47.87 72.89 46.47 72.63 44.8C72.37 43.14 72.19 41.35 72.09 39.42C71.98 37.45 71.93 35.5 71.93 33.57Q71.93 31.15 72.01 29.05C72.06 27.59 72.11 26.32 72.16 25.23C72.16 24.29 71.88 23.51 71.31 22.89Q70.14 21.87 68.97 21.87ZM208.5 44.49C209.07 43.87 209.36 43.14 209.36 42.31Q209.28 38.25 208.11 34.59C207.33 32.09 206.16 29.91 204.6 28.03Q204.13 27.47 203.62 26.96Q201.56 24.9 198.75 23.59C196.46 22.44 193.73 21.85 190.56 21.79C188.48 21.74 186.37 22.16 184.24 23.04C182.16 23.87 180.24 25.17 178.47 26.94C176.7 28.71 175.19 30.97 173.95 33.73Q172.07 37.78 171.45 43.4C171.29 44.8 171.22 46.16 171.22 47.46Q171.22 51.59 172.23 55.26C172.91 57.65 173.97 59.78 175.43 61.65C176.88 63.47 178.73 64.98 180.97 66.18C183.25 67.32 185.96 68 189.08 68.2C191.47 68.41 193.63 68.31 195.55 67.89C197.53 67.42 199.27 66.83 200.78 66.1C202.29 65.32 203.56 64.49 204.6 63.6C205.69 62.67 206.55 61.81 207.17 61.03C207.75 60.35 208.03 59.65 208.03 58.92C208.03 58.09 207.72 57.36 207.1 56.74L202.03 51.36C201.35 50.68 200.57 50.34 199.69 50.34C198.85 50.34 198.13 50.65 197.5 51.28C197.03 51.75 196.51 52.21 195.94 52.68C195.37 53.1 194.8 53.49 194.23 53.85C193.65 54.22 193.08 54.48 192.51 54.63C191.99 54.79 191.52 54.79 191.11 54.63C190.27 54.37 189.73 53.75 189.47 52.76Q189.16 51.28 189.16 49.72L189.16 48.31C189.21 47.85 189.26 47.48 189.31 47.22C189.31 46.91 189.44 46.75 189.7 46.75C190.22 46.7 191.08 46.65 192.28 46.6C193.52 46.49 194.93 46.39 196.49 46.29C198.05 46.18 199.69 46.08 201.4 45.97C203.17 45.87 204.83 45.74 206.39 45.58C207.28 45.48 207.98 45.12 208.5 44.49ZM435.49 44.49C436.06 43.87 436.35 43.14 436.35 42.31C436.3 39.6 435.88 37.03 435.1 34.59C434.32 32.09 433.15 29.91 431.59 28.03C430.03 26.16 428.08 24.68 425.74 23.59C423.45 22.44 420.72 21.85 417.55 21.79C415.47 21.74 413.37 22.16 411.23 23.04C409.15 23.87 407.23 25.17 405.46 26.94C403.69 28.71 402.19 30.97 400.94 33.73Q399.07 37.78 398.44 43.4Q398.21 45.51 398.21 47.46C398.21 50.21 398.55 52.81 399.22 55.26C399.9 57.65 400.96 59.78 402.42 61.65C403.88 63.47 405.72 64.98 407.96 66.18C410.25 67.32 412.95 68 416.07 68.2C418.46 68.41 420.62 68.31 422.54 67.89C424.52 67.42 426.26 66.83 427.77 66.1C429.28 65.32 430.55 64.49 431.59 63.6C432.68 62.67 433.54 61.81 434.17 61.03C434.74 60.35 435.02 59.65 435.02 58.92C435.02 58.09 434.71 57.36 434.09 56.74L429.02 51.36C428.34 50.68 427.56 50.34 426.68 50.34C425.85 50.34 425.12 50.65 424.49 51.28C424.03 51.75 423.51 52.21 422.93 52.68C422.36 53.1 421.79 53.49 421.22 53.85C420.65 54.22 420.07 54.48 419.5 54.63C418.98 54.79 418.51 54.79 418.1 54.63C417.27 54.37 416.72 53.75 416.46 52.76Q416.15 51.28 416.15 49.72L416.15 48.31C416.2 47.85 416.25 47.48 416.3 47.22C416.3 46.91 416.43 46.75 416.69 46.75C417.21 46.7 418.07 46.65 419.27 46.6C420.52 46.49 421.92 46.39 423.48 46.29C425.04 46.18 426.68 46.08 428.39 45.97C430.16 45.87 431.83 45.74 433.39 45.58C434.27 45.48 434.97 45.12 435.49 44.49ZM468.05 25.54C467.84 25.64 467.66 25.62 467.5 25.46C466.46 24.58 465.03 23.87 463.21 23.35C461.45 22.78 459.52 22.5 457.44 22.5C455.36 22.5 453.26 22.86 451.12 23.59C448.99 24.26 447.07 25.43 445.35 27.1C443.64 28.71 442.21 30.87 441.06 33.57C439.97 36.28 439.4 39.66 439.35 43.71C439.29 47.51 439.66 50.94 440.44 54.01C441.27 57.02 442.39 59.6 443.79 61.73C445.25 63.86 446.96 65.5 448.94 66.64C450.97 67.79 453.18 68.36 455.57 68.36C457.49 68.36 459.5 68 461.58 67.27C463.66 66.49 465.79 65.27 467.97 63.6C468.18 63.5 468.34 63.47 468.44 63.52C468.65 63.63 468.78 63.76 468.83 63.91L469.3 65.71C469.45 66.44 469.82 67.03 470.39 67.5Q470.94 67.87 471.54 68.02Q471.97 68.13 472.42 68.13L481 68.05C481.93 68.05 482.71 67.74 483.34 67.11C483.91 66.38 484.2 65.6 484.2 64.77L483.57 25.3C483.52 24.42 483.18 23.67 482.56 23.04C481.93 22.42 481.18 22.11 480.3 22.11L471.56 22.18C470.78 22.18 470.08 22.44 469.45 22.96C468.88 23.48 468.54 24.16 468.44 24.99L468.44 25.07C468.34 25.33 468.21 25.49 468.05 25.54ZM549.86 25.54C549.65 25.64 549.47 25.62 549.31 25.46C548.27 24.58 546.84 23.87 545.02 23.35C543.25 22.78 541.33 22.5 539.25 22.5C537.17 22.5 535.06 22.86 532.93 23.59C530.8 24.26 528.88 25.43 527.16 27.1C525.44 28.71 524.01 30.87 522.87 33.57C521.78 36.28 521.21 39.66 521.15 43.71C521.1 47.51 521.47 50.94 522.25 54.01C523.08 57.02 524.2 59.6 525.6 61.73Q527.78 64.93 530.75 66.64C532.78 67.79 534.99 68.36 537.38 68.36C539.3 68.36 541.3 68 543.38 67.27C545.46 66.49 547.6 65.27 549.78 63.6C549.99 63.5 550.14 63.47 550.25 63.52C550.46 63.63 550.59 63.76 550.64 63.91L551.11 65.71C551.26 66.44 551.63 67.03 552.2 67.5C552.82 67.92 553.5 68.13 554.23 68.13L562.81 68.05C563.74 68.05 564.52 67.74 565.15 67.11C565.72 66.38 566 65.6 566 64.77L565.38 25.3C565.33 24.42 564.99 23.67 564.37 23.04C563.74 22.42 562.99 22.11 562.1 22.11L553.37 22.18C552.59 22.18 551.89 22.44 551.26 22.96C550.69 23.48 550.35 24.16 550.25 24.99L550.25 25.07C550.14 25.33 550.01 25.49 549.86 25.54ZM516.15 34.35L518.25 28.5Q518.45 27.97 518.45 27.43Q518.45 26.72 518.1 26.01C517.68 25.17 517.06 24.63 516.23 24.37C514.3 23.74 512.12 23.22 509.67 22.81C507.28 22.39 504.84 22.18 502.34 22.18C500.37 22.18 498.47 22.34 496.65 22.65C494.83 22.96 493.19 23.48 491.73 24.21C490.28 24.89 489.06 25.82 488.07 27.02C487.13 28.16 486.53 29.59 486.27 31.31C486.12 32.35 486.04 33.31 486.04 34.2C486.04 36.64 486.51 38.62 487.44 40.12C488.43 41.58 489.52 42.88 490.72 44.02C491.97 45.12 493.16 46.16 494.31 47.14Q495.33 47.99 495.97 49.06Q496.46 49.87 496.73 50.81C496.99 51.8 497.01 52.63 496.8 53.31C496.6 53.93 496.26 54.45 495.79 54.87C495.32 55.28 494.75 55.59 494.07 55.8C493.4 56.01 492.72 56.17 492.05 56.27C491.16 56.37 490.46 56.76 489.94 57.44C489.42 58.06 489.21 58.82 489.32 59.7L489.86 66.1C489.97 66.83 490.28 67.48 490.8 68.05C491.32 68.57 491.97 68.88 492.75 68.98C493.32 69.04 493.89 69.06 494.46 69.06C495.09 69.11 495.69 69.14 496.26 69.14C498.75 69.14 501.25 68.85 503.75 68.28C506.24 67.76 508.5 66.93 510.53 65.79C512.56 64.59 514.25 63.08 515.6 61.26C517.01 59.44 517.84 57.26 518.1 54.71C518.31 52.63 518.12 50.89 517.55 49.48C517.03 48.03 516.28 46.81 515.29 45.82C514.35 44.78 513.29 43.92 512.09 43.24C510.95 42.52 509.88 41.89 508.89 41.37C507.96 40.8 507.18 40.25 506.55 39.73C505.98 39.21 505.77 38.62 505.93 37.94C506.14 37.16 506.55 36.64 507.18 36.38C507.8 36.07 508.5 35.91 509.28 35.91C509.8 35.91 510.32 35.96 510.84 36.07C511.36 36.17 511.86 36.28 512.33 36.38C513.11 36.64 513.86 36.59 514.59 36.22C515.32 35.81 515.84 35.18 516.15 34.35ZM103.16 23.51C102.53 24.13 102.22 24.89 102.22 25.77L101.68 64.62C101.68 65.5 101.99 66.25 102.61 66.88C103.18 67.55 103.94 67.89 104.87 67.89L116.26 67.97C117.09 68.07 117.87 67.76 118.6 67.03C119.23 66.41 119.54 65.66 119.54 64.77L118.76 25.69C118.76 24.81 118.45 24.08 117.82 23.51C117.2 22.89 116.44 22.57 115.56 22.57L105.42 22.57C104.54 22.57 103.78 22.89 103.16 23.51ZM353.67 35.44C353.56 35.39 353.51 35.26 353.51 35.05L353.51 24.99C353.51 24.78 353.56 24.63 353.67 24.52Q353.82 24.45 354.13 24.45C354.55 24.55 355.07 24.71 355.69 24.91C356.37 25.12 357.02 25.43 357.64 25.85C358.27 26.27 358.81 26.81 359.28 27.49C359.75 28.11 360.01 28.89 360.06 29.83C360.11 30.76 359.91 31.57 359.44 32.25C359.02 32.92 358.48 33.49 357.8 33.96C357.18 34.43 356.5 34.79 355.77 35.05C355.1 35.26 354.55 35.42 354.13 35.52C354.03 35.57 353.87 35.55 353.67 35.44ZM190.25 37.39C190.14 37.29 190.09 37.16 190.09 37C190.09 36.69 190.12 36.33 190.17 35.91C190.27 35.5 190.4 35.08 190.56 34.66C190.77 34.25 191.03 33.86 191.34 33.49Q191.42 33.4 191.5 33.32Q191.92 32.9 192.51 32.64C192.98 32.43 193.39 32.48 193.76 32.79C194.17 33.05 194.51 33.42 194.77 33.88C195.03 34.35 195.24 34.87 195.4 35.44C195.55 36.02 195.68 36.48 195.79 36.85C195.84 37.06 195.81 37.21 195.71 37.32C195.55 37.47 195.4 37.55 195.24 37.55L190.64 37.63C190.53 37.63 190.4 37.55 190.25 37.39ZM417.24 37.39C417.14 37.29 417.08 37.16 417.08 37C417.08 36.69 417.11 36.33 417.16 35.91C417.27 35.5 417.4 35.08 417.55 34.66C417.76 34.25 418.02 33.86 418.33 33.49C418.64 33.13 419.03 32.84 419.5 32.64C419.97 32.43 420.39 32.48 420.75 32.79C421.17 33.05 421.5 33.42 421.76 33.88Q422.15 34.59 422.39 35.44C422.54 36.02 422.67 36.48 422.78 36.85C422.83 37.06 422.8 37.21 422.7 37.32C422.54 37.47 422.39 37.55 422.23 37.55L417.63 37.63C417.53 37.63 417.4 37.55 417.24 37.39ZM282.73 38.02C283.61 37.55 284.52 37.32 285.46 37.32C286.45 37.32 287.36 37.55 288.19 38.02C289.07 38.43 289.83 39.03 290.45 39.81C291.08 40.59 291.57 41.5 291.93 42.54C292.3 43.58 292.48 44.67 292.48 45.82C292.48 47.01 292.3 48.13 291.93 49.17C291.57 50.16 291.08 51.04 290.45 51.82C289.83 52.6 289.07 53.23 288.19 53.7Q287.92 53.83 287.63 53.94Q286.62 54.32 285.46 54.32Q285.07 54.32 284.69 54.27Q283.69 54.15 282.73 53.7Q282.49 53.56 282.26 53.41Q281.3 52.77 280.55 51.82C279.92 51.04 279.43 50.16 279.06 49.17C278.7 48.13 278.52 47.01 278.52 45.82C278.52 44.67 278.7 43.58 279.06 42.54C279.43 41.5 279.92 40.59 280.55 39.81C281.17 39.03 281.9 38.43 282.73 38.02ZM148.59 40.44C149.42 40.59 150.36 40.9 151.4 41.37C151.61 41.48 151.71 41.66 151.71 41.92L151.71 48.16C151.71 48.42 151.63 48.57 151.48 48.63C150.44 49.15 149.47 49.51 148.59 49.72C147.71 49.93 146.9 50.03 146.17 50.03C144.35 50.03 143 49.51 142.12 48.47C141.23 47.43 140.79 46.29 140.79 45.04C140.79 43.79 141.23 42.67 142.12 41.68C143.05 40.64 144.43 40.12 146.25 40.12C146.98 40.12 147.76 40.23 148.59 40.44ZM467.71 49.48Q467.66 49.54 467.58 49.56C466.23 50.65 465.01 51.43 463.92 51.9Q462.28 52.6 461.03 52.6C459.83 52.6 458.92 52.21 458.3 51.43C457.73 50.65 457.44 49.72 457.44 48.63C457.44 47.85 457.57 47.07 457.83 46.29C458.14 45.51 458.59 44.8 459.16 44.18C459.78 43.56 460.54 43.04 461.42 42.62C462.3 42.2 463.34 42 464.54 42C464.96 42 465.4 42.02 465.87 42.07C466.39 42.13 466.91 42.23 467.43 42.39C467.69 42.49 467.82 42.65 467.82 42.85L467.82 49.17Q467.82 49.38 467.71 49.48ZM549.62 49.17C549.62 49.38 549.55 49.51 549.39 49.56C548.04 50.65 546.82 51.43 545.72 51.9C544.63 52.37 543.67 52.6 542.84 52.6C541.64 52.6 540.73 52.21 540.11 51.43C539.54 50.65 539.25 49.72 539.25 48.63Q539.25 47.46 539.64 46.29C539.95 45.51 540.39 44.8 540.97 44.18C541.59 43.56 542.34 43.04 543.23 42.62C544.11 42.2 545.15 42 546.35 42C546.76 42 547.21 42.02 547.67 42.07C548.19 42.13 548.71 42.23 549.23 42.39C549.49 42.49 549.62 42.65 549.62 42.85L549.62 49.17ZM324.9 73.7C326.04 73.23 327.29 73 328.64 73C329.94 73 331.17 73.23 332.31 73.7C333.45 74.11 334.44 74.71 335.27 75.49C336.16 76.22 336.83 77.1 337.3 78.14C337.82 79.13 338.08 80.2 338.08 81.34C338.08 82.54 337.82 83.66 337.3 84.7C336.83 85.68 336.16 86.57 335.27 87.35C334.44 88.08 333.45 88.67 332.31 89.14C331.17 89.56 329.94 89.77 328.64 89.77C327.29 89.77 326.04 89.56 324.9 89.14C323.76 88.67 322.74 88.08 321.86 87.35C321.03 86.57 320.38 85.68 319.91 84.7C319.39 83.66 319.13 82.54 319.13 81.34C319.13 80.2 319.39 79.13 319.91 78.14C320.38 77.1 321.03 76.22 321.86 75.49C322.74 74.71 323.76 74.11 324.9 73.7ZM109.16 80.17C108.59 80.8 108.31 81.55 108.31 82.43L108.15 134.62C108.15 135.5 108.46 136.28 109.09 136.96C109.71 137.58 110.46 137.89 111.35 137.89L143.64 138.13C144.52 138.13 145.28 137.81 145.9 137.19C146.58 136.57 146.92 135.81 146.92 134.93L147.23 122.84C147.23 121.9 146.89 121.12 146.21 120.5C145.59 119.87 144.81 119.56 143.87 119.56L130.07 120.03C129.96 120.03 129.81 119.98 129.6 119.87C129.5 119.67 129.44 119.54 129.44 119.48L129.6 115.35C129.6 114.99 129.78 114.8 130.15 114.8L135.53 114.8C136.41 114.8 137.14 114.52 137.71 113.95C138.34 113.37 138.67 112.65 138.73 111.76L139.27 103.1C139.27 102.17 138.96 101.39 138.34 100.76C137.71 100.09 136.93 99.75 136 99.75L131.24 99.75C130.87 99.75 130.69 99.57 130.69 99.2L130.69 95.62C130.69 95.25 130.87 95.07 131.24 95.07L144.19 94.37C145.07 94.32 145.8 93.98 146.37 93.35C146.99 92.73 147.31 91.98 147.31 91.09L147.31 81.81C147.31 80.98 146.97 80.22 146.29 79.55C145.67 78.92 144.89 78.61 143.95 78.61L111.43 79.24C110.54 79.24 109.79 79.55 109.16 80.17ZM452.78 108.72L460.19 105.76C461.02 105.39 461.62 104.79 461.98 103.96Q462.11 103.63 462.17 103.29Q462.31 102.42 461.98 101.47C460.37 97.72 458.08 94.97 455.12 93.2C452.15 91.43 449.01 90.6 445.68 90.7C442.14 90.81 439.07 91.61 436.47 93.12C433.93 94.58 431.82 96.5 430.16 98.89C428.54 101.28 427.37 104.01 426.65 107.08C425.97 110.1 425.71 113.19 425.87 116.36C426.02 119.33 426.54 122.21 427.43 125.02C428.36 127.83 429.69 130.33 431.4 132.51C433.17 134.64 435.36 136.36 437.96 137.66C440.61 138.91 443.7 139.45 447.24 139.3C449.21 139.19 451.03 138.8 452.7 138.13C454.36 137.4 455.84 136.49 457.14 135.39C458.5 134.3 459.64 133.11 460.58 131.81C461.56 130.46 462.34 129.08 462.92 127.67Q463.18 126.93 463.12 126.22Q463.08 125.65 462.84 125.1Q462.71 124.83 462.54 124.59Q461.96 123.8 460.89 123.38L453.32 121.12Q452.7 120.9 452.11 120.95Q451.66 121 451.22 121.2C450.54 121.46 449.99 121.93 449.58 122.6C449.16 123.33 448.67 123.85 448.1 124.16C447.52 124.48 446.93 124.63 446.3 124.63C445 124.63 443.75 123.98 442.56 122.68C441.36 121.33 440.63 119.38 440.37 116.83Q440.3 116.21 440.3 115.66L440.3 114.57C440.3 111.45 440.82 109.14 441.86 107.63C442.95 106.07 444.14 105.29 445.44 105.29C446.8 105.29 447.94 106.02 448.88 107.47C449.29 108.15 449.86 108.59 450.59 108.8Q451.08 108.94 451.56 108.94Q452.17 108.94 452.78 108.72ZM408.97 137.97L418.1 138.2C418.93 138.2 419.66 137.94 420.28 137.42C420.91 136.9 421.27 136.2 421.38 135.32C421.64 133.08 421.87 130.51 422.08 127.6C422.34 124.68 422.47 121.64 422.47 118.47C422.47 115.19 422.26 111.97 421.84 108.8C421.48 105.63 420.78 102.77 419.74 100.22C418.75 97.67 417.35 95.59 415.53 93.98C413.76 92.37 411.47 91.51 408.66 91.4C406.32 91.3 404.09 91.61 401.95 92.34C399.82 93.07 398.21 93.95 397.12 94.99C396.91 95.2 396.73 95.25 396.57 95.15C396.42 95.1 396.29 94.94 396.18 94.68C396.08 94 395.79 93.43 395.32 92.96C394.7 92.34 393.92 92.03 392.98 92.03L385.26 92.11C384.38 92.11 383.62 92.42 383 93.04C382.38 93.67 382.06 94.42 382.06 95.3L382.38 135C382.38 135.89 382.69 136.64 383.31 137.27C383.94 137.89 384.69 138.18 385.57 138.13L395.01 138.13C395.9 138.13 396.65 137.81 397.27 137.19C397.9 136.57 398.21 135.78 398.21 134.85L398.21 127.28C398.26 125.46 398.34 123.64 398.44 121.82C398.55 120 398.7 118.26 398.91 116.6C399.12 114.88 399.38 113.4 399.69 112.15C400 110.9 400.39 109.97 400.86 109.34C401.33 108.67 401.88 108.43 402.5 108.64C403.23 108.9 403.83 109.6 404.29 110.75C404.76 111.89 405.13 113.3 405.39 114.96C405.65 116.62 405.83 118.44 405.93 120.42C406.04 122.4 406.09 124.35 406.09 126.27C406.09 127.88 406.06 129.42 406.01 130.87C405.96 132.28 405.91 133.52 405.85 134.62C405.85 135.55 406.14 136.33 406.71 136.96C407.28 137.53 408.04 137.87 408.97 137.97ZM281.54 93.43C281.01 94 280.76 94.71 280.76 95.54L280.76 135C280.76 135.89 281.07 136.64 281.69 137.27C282.32 137.89 283.07 138.2 283.95 138.2L294.64 138.13Q295.13 138.13 295.57 137.99Q296.34 137.75 296.98 137.11C297.66 136.38 297.94 135.58 297.84 134.69C297.73 133.19 297.63 131.34 297.53 129.16C297.42 126.97 297.37 124.76 297.37 122.53C297.37 121.23 297.4 119.98 297.45 118.78C297.5 117.53 297.58 116.42 297.68 115.43C297.84 114.44 298.02 113.61 298.23 112.93C298.49 112.2 298.77 111.68 299.09 111.37Q300.1 110.51 301.11 110.2C301.79 109.99 302.47 109.89 303.14 109.89C303.92 109.89 304.68 110.02 305.4 110.28C306.13 110.49 306.78 110.77 307.35 111.14C308.08 111.55 308.84 111.68 309.62 111.53C310.45 111.37 311.1 110.93 311.57 110.2L317.03 102.56C317.44 101.93 317.62 101.26 317.57 100.53C317.57 99.75 317.29 99.07 316.71 98.5C315.15 96.84 313.28 95.36 311.1 94.06C308.97 92.76 306.78 92.11 304.54 92.11C303.14 92.11 301.74 92.42 300.33 93.04C298.98 93.67 297.68 94.73 296.43 96.24Q296.2 96.48 296.01 96.44Q295.94 96.43 295.89 96.4C295.63 96.29 295.5 96.11 295.5 95.85L295.5 94.76C295.5 93.93 295.16 93.12 294.48 92.34C293.81 91.72 292.98 91.46 291.99 91.56L283.64 92.34C282.81 92.44 282.11 92.81 281.54 93.43ZM212.32 93.28C210.55 93.8 209.12 94.5 208.03 95.38C207.87 95.54 207.69 95.56 207.48 95.46C207.27 95.36 207.17 95.2 207.17 94.99L207.17 94.68C207.12 93.85 206.78 93.15 206.15 92.57C205.58 92 204.85 91.72 203.97 91.72L194.69 91.72C193.8 91.72 193.05 92.03 192.43 92.65C191.8 93.28 191.49 94.03 191.49 94.91L191.18 156.3C191.18 157.18 191.49 157.96 192.11 158.64C192.84 159.26 193.62 159.55 194.45 159.5L204.67 159.26C205.56 159.21 206.28 158.87 206.86 158.25C207.48 157.63 207.79 156.87 207.79 155.99L207.25 136.49C207.25 136.28 207.35 136.12 207.56 136.02C207.71 135.86 207.9 135.86 208.1 136.02C209.46 136.75 210.83 137.29 212.24 137.66C213.69 138.02 215.18 138.2 216.68 138.2C219.18 138.2 221.6 137.68 223.94 136.64C226.28 135.6 228.36 134.07 230.18 132.04C232.05 130.01 233.53 127.47 234.62 124.4C235.72 121.33 236.24 117.77 236.18 113.71C236.13 109.66 235.53 106.28 234.39 103.57C233.3 100.87 231.87 98.71 230.1 97.1C228.38 95.43 226.46 94.26 224.33 93.59C222.2 92.86 220.09 92.5 218.01 92.5C215.98 92.5 214.08 92.76 212.32 93.28ZM276.9 114.49C277.47 113.87 277.76 113.14 277.76 112.31C277.71 109.6 277.29 107.03 276.51 104.59C275.73 102.09 274.56 99.91 273 98.03C271.44 96.16 269.49 94.68 267.15 93.59C264.86 92.44 262.13 91.85 258.96 91.79C256.88 91.74 254.78 92.16 252.64 93.04C250.56 93.87 248.64 95.17 246.87 96.94C245.1 98.71 243.6 100.97 242.35 103.73Q240.48 107.78 239.85 113.4C239.7 114.8 239.62 116.16 239.62 117.46C239.62 120.21 239.96 122.81 240.63 125.26C241.31 127.65 242.37 129.78 243.83 131.65C245.29 133.47 247.13 134.98 249.37 136.17C251.66 137.32 254.36 138 257.48 138.2C259.87 138.41 262.03 138.31 263.95 137.89C265.93 137.42 267.67 136.83 269.18 136.1C270.69 135.32 271.96 134.49 273 133.6C274.09 132.67 274.95 131.81 275.57 131.03C276.15 130.35 276.43 129.65 276.43 128.92C276.43 128.09 276.12 127.36 275.5 126.74L270.43 121.36C269.75 120.68 268.97 120.34 268.09 120.34C267.26 120.34 266.53 120.65 265.9 121.28C265.44 121.75 264.92 122.21 264.34 122.68C263.77 123.1 263.2 123.49 262.63 123.85C262.06 124.22 261.48 124.48 260.91 124.63C260.39 124.79 259.92 124.79 259.51 124.63C258.68 124.37 258.13 123.75 257.87 122.76Q257.56 121.28 257.56 119.72L257.56 118.31C257.61 117.85 257.66 117.48 257.71 117.22Q257.71 116.95 257.85 116.83Q257.94 116.75 258.1 116.75C258.62 116.7 259.48 116.65 260.68 116.6C261.93 116.49 263.33 116.39 264.89 116.29C266.45 116.18 268.09 116.08 269.8 115.97C271.57 115.87 273.24 115.74 274.79 115.58C275.68 115.48 276.38 115.12 276.9 114.49ZM378.21 114.49C378.78 113.87 379.07 113.14 379.07 112.31C379.02 109.6 378.6 107.03 377.82 104.59C377.04 102.09 375.87 99.91 374.31 98.03C372.75 96.16 370.8 94.68 368.46 93.59C366.17 92.44 363.44 91.85 360.27 91.79C358.19 91.74 356.08 92.16 353.95 93.04C351.87 93.87 349.95 95.17 348.18 96.94C346.41 98.71 344.9 100.97 343.66 103.73Q341.78 107.78 341.16 113.4C341 114.8 340.93 116.16 340.93 117.46C340.93 120.21 341.26 122.81 341.94 125.26C342.62 127.65 343.68 129.78 345.14 131.65C346.59 133.47 348.44 134.98 350.68 136.17C352.96 137.32 355.67 138 358.79 138.2C361.18 138.41 363.34 138.31 365.26 137.89C367.24 137.42 368.98 136.83 370.49 136.1C372 135.32 373.27 134.49 374.31 133.6C375.4 132.67 376.26 131.81 376.88 131.03C377.46 130.35 377.74 129.65 377.74 128.92C377.74 128.09 377.43 127.36 376.81 126.74L371.74 121.36C371.06 120.68 370.28 120.34 369.4 120.34C368.56 120.34 367.84 120.65 367.21 121.28C366.74 121.75 366.22 122.21 365.65 122.68C365.08 123.1 364.51 123.49 363.94 123.85C363.36 124.22 362.79 124.48 362.22 124.63C361.7 124.79 361.23 124.79 360.82 124.63C359.98 124.37 359.44 123.75 359.18 122.76Q358.87 121.28 358.87 119.72L358.87 118.31C358.92 117.85 358.97 117.48 359.02 117.22Q359.02 116.95 359.16 116.83Q359.25 116.75 359.41 116.75C359.93 116.7 360.79 116.65 361.99 116.6C363.23 116.49 364.64 116.39 366.2 116.29C367.76 116.18 369.4 116.08 371.11 115.97C372.88 115.87 374.54 115.74 376.1 115.58C376.99 115.48 377.69 115.12 378.21 114.49ZM500.85 114.49C501.42 113.87 501.71 113.14 501.71 112.31C501.65 109.6 501.24 107.03 500.46 104.59C499.68 102.09 498.51 99.91 496.95 98.03C495.39 96.16 493.44 94.68 491.1 93.59C488.81 92.44 486.08 91.85 482.91 91.79C480.83 91.74 478.72 92.16 476.59 93.04C474.51 93.87 472.58 95.17 470.82 96.94C469.05 98.71 467.54 100.97 466.29 103.73Q464.42 107.78 463.8 113.4C463.64 114.8 463.56 116.16 463.56 117.46C463.56 120.21 463.9 122.81 464.58 125.26C465.25 127.65 466.32 129.78 467.77 131.65C469.23 133.47 471.08 134.98 473.31 136.17C475.6 137.32 478.3 138 481.42 138.2C483.82 138.41 485.97 138.31 487.9 137.89C489.87 137.42 491.62 136.83 493.12 136.1C494.63 135.32 495.91 134.49 496.95 133.6C498.04 132.67 498.9 131.81 499.52 131.03C500.09 130.35 500.38 129.65 500.38 128.92C500.38 128.09 500.07 127.36 499.44 126.74L494.37 121.36C493.7 120.68 492.92 120.34 492.03 120.34C491.2 120.34 490.47 120.65 489.85 121.28C489.38 121.75 488.86 122.21 488.29 122.68C487.72 123.1 487.14 123.49 486.57 123.85C486 124.22 485.43 124.48 484.86 124.63C484.34 124.79 483.87 124.79 483.45 124.63C482.62 124.37 482.07 123.75 481.81 122.76Q481.5 121.28 481.5 119.72L481.5 118.31C481.55 117.85 481.61 117.48 481.66 117.22Q481.66 116.95 481.79 116.83Q481.89 116.75 482.05 116.75C482.57 116.7 483.43 116.65 484.62 116.6C485.87 116.49 487.27 116.39 488.83 116.29C490.39 116.18 492.03 116.08 493.75 115.97C495.52 115.87 497.18 115.74 498.74 115.58C499.62 115.48 500.33 115.12 500.85 114.49ZM179.49 114.18L188.77 97.41Q189.27 96.46 189.19 95.56Q189.13 94.91 188.77 94.29C188.2 93.2 187.31 92.65 186.12 92.65L175.51 92.18C174.83 92.13 174.21 92.29 173.64 92.65C173.12 93.02 172.73 93.48 172.47 94.06L168.8 102.17C168.7 102.38 168.52 102.48 168.26 102.48C168.05 102.48 167.89 102.38 167.79 102.17L164.43 93.9C164.17 93.28 163.76 92.78 163.19 92.42C162.67 92.05 162.07 91.9 161.39 91.95L151.64 92.18C150.5 92.18 149.61 92.7 148.99 93.74C148.37 94.78 148.34 95.82 148.91 96.86L157.96 114.26Q158.04 114.41 158.04 114.73L149.46 133.29C148.99 134.33 149.07 135.34 149.69 136.33C150.37 137.32 151.25 137.81 152.34 137.81L162.09 137.89C163.39 137.89 164.36 137.29 164.98 136.1L168.33 129.62C168.39 129.42 168.54 129.31 168.8 129.31C169.11 129.31 169.27 129.44 169.27 129.7L171.06 135.71C171.27 136.38 171.64 136.93 172.16 137.35C172.73 137.76 173.38 137.97 174.11 137.97L185.73 138.05C186.87 138.05 187.78 137.55 188.46 136.57C189.13 135.53 189.19 134.49 188.61 133.45L179.49 114.65C179.38 114.49 179.38 114.34 179.49 114.18ZM533.13 104.35L535.24 98.5Q535.44 97.97 535.44 97.43Q535.44 96.72 535.08 96.01C534.67 95.17 534.04 94.63 533.21 94.37C531.29 93.74 529.1 93.22 526.66 92.81C524.27 92.39 521.82 92.18 519.33 92.18C517.35 92.18 515.45 92.34 513.63 92.65C511.81 92.96 510.18 93.48 508.72 94.21C507.26 94.89 506.04 95.82 505.05 97.02C504.12 98.16 503.52 99.59 503.26 101.31C503.1 102.35 503.03 103.31 503.03 104.2C503.03 106.64 503.49 108.62 504.43 110.12C505.42 111.58 506.51 112.88 507.71 114.02C508.95 115.12 510.15 116.16 511.29 117.14C512.49 118.13 513.3 119.35 513.71 120.81C513.97 121.8 514 122.63 513.79 123.31C513.58 123.93 513.24 124.45 512.78 124.87C512.31 125.28 511.74 125.59 511.06 125.8C510.38 126.01 509.71 126.17 509.03 126.27C508.15 126.37 507.45 126.76 506.93 127.44C506.41 128.06 506.2 128.82 506.3 129.7L506.85 136.1C506.95 136.83 507.26 137.48 507.78 138.05C508.3 138.57 508.95 138.88 509.73 138.98C510.31 139.03 510.88 139.06 511.45 139.06C512.07 139.11 512.67 139.14 513.24 139.14C515.74 139.14 518.24 138.85 520.73 138.28C523.23 137.76 525.49 136.93 527.52 135.78C529.55 134.59 531.24 133.08 532.59 131.26C533.99 129.44 534.82 127.26 535.08 124.71C535.29 122.63 535.11 120.89 534.54 119.48C534.02 118.03 533.26 116.81 532.28 115.82C531.34 114.78 530.27 113.92 529.08 113.24C527.93 112.52 526.87 111.89 525.88 111.37C524.94 110.8 524.16 110.25 523.54 109.73C522.97 109.21 522.76 108.62 522.92 107.94C523.12 107.16 523.54 106.64 524.16 106.38C524.79 106.07 525.49 105.91 526.27 105.91C526.79 105.91 527.31 105.96 527.83 106.07C528.35 106.17 528.84 106.28 529.31 106.38C530.09 106.64 530.84 106.59 531.57 106.22C532.3 105.81 532.82 105.18 533.13 104.35ZM321.39 93.51C320.77 94.13 320.45 94.89 320.45 95.77L319.91 134.62C319.91 135.5 320.22 136.25 320.84 136.88C321.42 137.55 322.17 137.89 323.11 137.89L334.49 137.97C335.33 138.07 336.11 137.76 336.83 137.03C337.46 136.41 337.77 135.66 337.77 134.77L336.99 95.69C336.99 94.81 336.68 94.08 336.05 93.51C335.43 92.89 334.68 92.57 333.79 92.57L323.65 92.57C322.77 92.57 322.01 92.89 321.39 93.51ZM258.65 107.39C258.54 107.29 258.49 107.16 258.49 107C258.49 106.69 258.52 106.33 258.57 105.91C258.68 105.5 258.81 105.08 258.96 104.66C259.17 104.25 259.43 103.86 259.74 103.49C260.05 103.13 260.44 102.84 260.91 102.64C261.38 102.43 261.79 102.48 262.16 102.79C262.57 103.05 262.91 103.42 263.17 103.88C263.43 104.35 263.64 104.87 263.8 105.44C263.95 106.02 264.08 106.48 264.19 106.85C264.24 107.06 264.21 107.21 264.11 107.32C263.95 107.47 263.8 107.55 263.64 107.55L259.04 107.63C258.94 107.63 258.81 107.55 258.65 107.39ZM359.96 107.39C359.85 107.29 359.8 107.16 359.8 107C359.8 106.69 359.83 106.33 359.88 105.91C359.98 105.5 360.11 105.08 360.27 104.66C360.48 104.25 360.74 103.86 361.05 103.49C361.36 103.13 361.75 102.84 362.22 102.64C362.69 102.43 363.1 102.48 363.47 102.79C363.88 103.05 364.22 103.42 364.48 103.88C364.74 104.35 364.95 104.87 365.11 105.44C365.26 106.02 365.39 106.48 365.5 106.85C365.55 107.06 365.52 107.21 365.42 107.32C365.26 107.47 365.11 107.55 364.95 107.55L360.35 107.63C360.24 107.63 360.11 107.55 359.96 107.39ZM482.59 107.39C482.49 107.29 482.44 107.16 482.44 107C482.44 106.69 482.46 106.33 482.52 105.91C482.62 105.5 482.75 105.08 482.91 104.66C483.11 104.25 483.37 103.86 483.69 103.49C484 103.13 484.39 102.84 484.86 102.64C485.32 102.43 485.74 102.48 486.1 102.79C486.52 103.05 486.86 103.42 487.12 103.88C487.38 104.35 487.59 104.87 487.74 105.44C487.9 106.02 488.03 106.48 488.13 106.85C488.18 107.06 488.16 107.21 488.05 107.32C487.9 107.47 487.74 107.55 487.59 107.55L482.98 107.63C482.88 107.63 482.75 107.55 482.59 107.39ZM210.52 122.76C209.69 122.55 208.75 122.21 207.71 121.75C207.51 121.64 207.4 121.49 207.4 121.28L207.4 115.04C207.4 114.83 207.51 114.65 207.71 114.49C209.74 113.56 211.48 113.09 212.94 113.09C214.76 113.09 216.11 113.61 217 114.65C217.93 115.69 218.4 116.83 218.4 118.08C218.4 119.33 217.93 120.47 217 121.51C216.06 122.5 214.68 122.99 212.86 122.99C212.13 122.99 211.35 122.92 210.52 122.76Z" fill="#FFFFFF" fill-opacity="1.000000" fill-rule="evenodd"/>
		<path id="Guide to Pleasant Experiences" d="M47.73 26.01L36.42 29.59C35.53 29.85 34.7 29.8 33.92 29.44C33.19 29.02 32.67 28.42 32.36 27.64C31.74 26.03 30.67 25.23 29.16 25.23C28.23 25.23 27.24 25.56 26.2 26.24C25.21 26.86 24.3 27.83 23.47 29.13C22.69 30.43 22.04 32.04 21.52 33.96C21.05 35.89 20.87 38.1 20.97 40.59C21.02 42.05 21.21 43.48 21.52 44.88C21.83 46.23 22.25 47.46 22.77 48.55C23.29 49.59 23.91 50.47 24.64 51.2C25.42 51.88 26.3 52.27 27.29 52.37C28.9 52.53 30.18 52.27 31.11 51.59C32.05 50.91 32.75 50.08 33.22 49.09C33.69 48.11 33.95 47.09 34 46.05C34.1 45.01 34.15 44.23 34.15 43.71C34.15 43.56 34.1 43.43 34 43.32C33.89 43.22 33.76 43.17 33.61 43.17L32.2 43.24C31.32 43.35 30.54 43.14 29.86 42.62C29.19 42.05 28.8 41.32 28.69 40.44L28.54 39.27C28.43 38.28 28.69 37.45 29.32 36.77C29.94 36.04 30.75 35.68 31.74 35.68L47.73 35.37C48.61 35.31 49.36 35.57 49.99 36.15C50.61 36.72 50.95 37.45 51 38.33C51.05 38.85 51.08 39.42 51.08 40.05C51.13 40.67 51.16 41.35 51.16 42.07C51.16 43.63 51.05 45.35 50.85 47.22C50.69 49.09 50.33 50.99 49.75 52.92C49.23 54.79 48.48 56.63 47.49 58.45C46.56 60.22 45.31 61.83 43.75 63.29C42.24 64.69 40.39 65.86 38.21 66.8C36.03 67.68 33.45 68.18 30.49 68.28C25.18 68.54 20.79 67.87 17.31 66.25C13.87 64.64 11.12 62.48 9.04 59.78C7.01 57.02 5.53 53.93 4.59 50.5C3.71 47.07 3.19 43.66 3.03 40.28C2.82 34.98 3.47 30.27 4.98 26.16C6.49 22.05 8.52 18.6 11.07 15.79C13.67 12.98 16.6 10.85 19.88 9.39C23.21 7.94 26.54 7.21 29.86 7.21C31.94 7.21 33.97 7.52 35.95 8.14C37.98 8.72 39.85 9.6 41.56 10.8C43.33 11.99 44.92 13.5 46.32 15.32C47.73 17.14 48.87 19.3 49.75 21.79C50.07 22.63 50.01 23.48 49.6 24.37C49.18 25.15 48.56 25.69 47.73 26.01ZM57.81 21.87L68.97 21.87C69.75 21.87 70.53 22.21 71.31 22.89C71.88 23.51 72.16 24.29 72.16 25.23C72.11 26.32 72.06 27.59 72.01 29.05C71.96 30.45 71.93 31.96 71.93 33.57C71.93 35.5 71.98 37.45 72.09 39.42C72.19 41.35 72.37 43.14 72.63 44.8C72.89 46.47 73.26 47.87 73.72 49.02C74.19 50.16 74.79 50.86 75.52 51.12C76.14 51.38 76.69 51.17 77.16 50.5C77.62 49.82 78.01 48.89 78.33 47.69C78.64 46.44 78.9 44.99 79.11 43.32C79.31 41.61 79.47 39.84 79.57 38.02C79.68 36.2 79.73 34.38 79.73 32.56C79.78 30.74 79.81 29.07 79.81 27.57L79.81 24.99C79.81 24.06 80.12 23.28 80.74 22.65C81.42 22.03 82.23 21.72 83.16 21.72L94.32 22.18C95.2 22.24 95.93 22.57 96.5 23.2C97.07 23.77 97.38 24.5 97.44 25.38L97.67 64.46C97.67 65.34 97.36 66.1 96.73 66.72C96.11 67.35 95.36 67.66 94.47 67.66L85.03 67.74C84.1 67.74 83.32 67.42 82.69 66.8C82.17 66.23 81.89 65.63 81.84 65.01C81.84 64.95 81.81 64.93 81.76 64.93C81.76 64.93 81.76 64.9 81.76 64.85C81.76 64.59 81.65 64.43 81.45 64.38C81.29 64.28 81.11 64.33 80.9 64.54C79.76 65.53 78.27 66.36 76.45 67.03C74.69 67.71 72.79 68.05 70.76 68.05C69.04 68.05 67.3 67.74 65.53 67.11C63.82 66.44 62.21 65.32 60.7 63.76C59.24 62.2 57.97 60.12 56.88 57.52C55.78 54.87 55.03 51.56 54.61 47.61C54.41 45.79 54.25 43.97 54.15 42.15C54.09 40.28 54.07 38.43 54.07 36.61C54.07 34.53 54.12 32.51 54.22 30.53C54.33 28.55 54.46 26.66 54.61 24.84C54.72 23.95 55.06 23.25 55.63 22.73C56.2 22.16 56.93 21.87 57.81 21.87ZM102.22 25.77C102.22 24.89 102.53 24.13 103.16 23.51C103.78 22.89 104.54 22.57 105.42 22.57L115.56 22.57C116.44 22.57 117.2 22.89 117.82 23.51C118.45 24.08 118.76 24.81 118.76 25.69L119.54 64.77C119.54 65.66 119.23 66.41 118.6 67.03C117.87 67.76 117.09 68.07 116.26 67.97L104.87 67.89C103.94 67.89 103.18 67.55 102.61 66.88C101.99 66.25 101.68 65.5 101.68 64.62L102.22 25.77ZM110.41 3C109.06 3 107.81 3.23 106.67 3.7C105.52 4.11 104.51 4.71 103.63 5.49C102.79 6.22 102.14 7.1 101.68 8.14C101.16 9.13 100.9 10.2 100.9 11.34C100.9 12.54 101.16 13.66 101.68 14.7C102.14 15.68 102.79 16.57 103.63 17.35C104.51 18.08 105.52 18.67 106.67 19.14C107.81 19.56 109.06 19.77 110.41 19.77C111.71 19.77 112.93 19.56 114.08 19.14C115.22 18.67 116.21 18.08 117.04 17.35C117.93 16.57 118.6 15.68 119.07 14.7C119.59 13.66 119.85 12.54 119.85 11.34C119.85 10.2 119.59 9.13 119.07 8.14C118.6 7.1 117.93 6.22 117.04 5.49C116.21 4.71 115.22 4.11 114.08 3.7C112.93 3.23 111.71 3 110.41 3ZM151.87 63.91C150.93 64.95 149.47 65.84 147.5 66.57C145.57 67.24 143.44 67.58 141.1 67.58C139.02 67.58 136.92 67.24 134.78 66.57C132.65 65.89 130.7 64.75 128.93 63.13C127.22 61.47 125.79 59.29 124.64 56.58C123.55 53.83 122.98 50.42 122.93 46.36C122.88 42.57 123.34 39.29 124.33 36.54C125.32 33.73 126.62 31.44 128.23 29.67C129.89 27.9 131.79 26.6 133.92 25.77C136.06 24.89 138.29 24.45 140.63 24.45C144.22 24.45 147.68 25.36 151.01 27.18C151.16 27.28 151.35 27.28 151.55 27.18C151.71 27.02 151.79 26.86 151.79 26.71L151.32 12.59C151.27 11.65 151.55 10.87 152.18 10.25C152.75 9.57 153.5 9.24 154.44 9.24L164.66 9C165.49 8.95 166.27 9.24 167 9.86C167.62 10.48 167.93 11.26 167.93 12.2L167.78 65.16C167.78 66.05 167.47 66.8 166.84 67.42C166.22 68.05 165.46 68.36 164.58 68.36L155.14 68.36C154.26 68.36 153.5 68.07 152.88 67.5C152.31 66.93 152 66.2 151.94 65.32L151.87 63.91ZM151.4 41.37C150.36 40.9 149.42 40.59 148.59 40.44C147.76 40.23 146.98 40.12 146.25 40.12C144.43 40.12 143.05 40.64 142.12 41.68C141.23 42.67 140.79 43.79 140.79 45.04C140.79 46.29 141.23 47.43 142.12 48.47C143 49.51 144.35 50.03 146.17 50.03C146.9 50.03 147.71 49.93 148.59 49.72C149.47 49.51 150.44 49.15 151.48 48.63C151.63 48.57 151.71 48.42 151.71 48.16L151.71 41.92C151.71 41.66 151.61 41.48 151.4 41.37ZM209.36 42.31C209.36 43.14 209.07 43.87 208.5 44.49C207.98 45.12 207.28 45.48 206.39 45.58C204.83 45.74 203.17 45.87 201.4 45.97C199.69 46.08 198.05 46.18 196.49 46.29C194.93 46.39 193.52 46.49 192.28 46.6C191.08 46.65 190.22 46.7 189.7 46.75C189.44 46.75 189.31 46.91 189.31 47.22C189.26 47.48 189.21 47.85 189.16 48.31C189.16 48.73 189.16 49.2 189.16 49.72C189.16 50.76 189.26 51.77 189.47 52.76C189.73 53.75 190.27 54.37 191.11 54.63C191.52 54.79 191.99 54.79 192.51 54.63C193.08 54.48 193.65 54.22 194.23 53.85C194.8 53.49 195.37 53.1 195.94 52.68C196.51 52.21 197.03 51.75 197.5 51.28C198.13 50.65 198.85 50.34 199.69 50.34C200.57 50.34 201.35 50.68 202.03 51.36L207.1 56.74C207.72 57.36 208.03 58.09 208.03 58.92C208.03 59.65 207.75 60.35 207.17 61.03C206.55 61.81 205.69 62.67 204.6 63.6C203.56 64.49 202.29 65.32 200.78 66.1C199.27 66.83 197.53 67.42 195.55 67.89C193.63 68.31 191.47 68.41 189.08 68.2C185.96 68 183.25 67.32 180.97 66.18C178.73 64.98 176.88 63.47 175.43 61.65C173.97 59.78 172.91 57.65 172.23 55.26C171.55 52.81 171.22 50.21 171.22 47.46C171.22 46.16 171.29 44.8 171.45 43.4C171.87 39.66 172.7 36.43 173.95 33.73C175.19 30.97 176.7 28.71 178.47 26.94C180.24 25.17 182.16 23.87 184.24 23.04C186.37 22.16 188.48 21.74 190.56 21.79C193.73 21.85 196.46 22.44 198.75 23.59C201.09 24.68 203.04 26.16 204.6 28.03C206.16 29.91 207.33 32.09 208.11 34.59C208.89 37.03 209.31 39.6 209.36 42.31ZM190.09 37C190.09 37.16 190.14 37.29 190.25 37.39C190.4 37.55 190.53 37.63 190.64 37.63L195.24 37.55C195.4 37.55 195.55 37.47 195.71 37.32C195.81 37.21 195.84 37.06 195.79 36.85C195.68 36.48 195.55 36.02 195.4 35.44C195.24 34.87 195.03 34.35 194.77 33.88C194.51 33.42 194.17 33.05 193.76 32.79C193.39 32.48 192.98 32.43 192.51 32.64C192.04 32.84 191.65 33.13 191.34 33.49C191.03 33.86 190.77 34.25 190.56 34.66C190.4 35.08 190.27 35.5 190.17 35.91C190.12 36.33 190.09 36.69 190.09 37ZM243.85 13.21C244.47 12.17 245.38 11.65 246.58 11.65L251.34 11.5C252.17 11.5 252.98 11.84 253.76 12.51C254.38 13.24 254.67 14.05 254.61 14.93C254.56 15.81 254.51 16.83 254.46 17.97C254.41 19.06 254.33 20.26 254.22 21.56C254.22 21.66 254.28 21.82 254.38 22.03C254.48 22.13 254.61 22.18 254.77 22.18L257.66 22.18C258.49 22.13 259.24 22.44 259.92 23.12C260.65 23.74 260.96 24.5 260.85 25.38L260.7 34.27C260.7 35.16 260.39 35.91 259.76 36.54C259.19 37.11 258.46 37.42 257.58 37.47L253.99 37.47C253.63 37.47 253.44 37.65 253.44 38.02C253.39 39.16 253.34 40.23 253.29 41.22C253.29 42.15 253.29 43.06 253.29 43.95C253.29 44.83 253.29 45.61 253.29 46.29C253.34 46.91 253.39 47.43 253.44 47.85C253.6 49.46 254.2 50.47 255.24 50.89C256.28 51.25 257.37 51.38 258.51 51.28C259.5 51.12 260.36 51.41 261.09 52.14C261.87 52.81 262.21 53.64 262.1 54.63L261.48 65.32C261.43 66.15 261.11 66.85 260.54 67.42C260.02 68 259.32 68.31 258.44 68.36C258.02 68.41 257.58 68.44 257.11 68.44C256.64 68.44 256.12 68.44 255.55 68.44C254.3 68.44 252.95 68.39 251.49 68.28C250.04 68.18 248.61 67.97 247.2 67.66C245.85 67.29 244.58 66.83 243.38 66.25C242.19 65.68 241.22 64.93 240.5 63.99C240.03 63.42 239.64 62.51 239.33 61.26C239.01 59.96 238.75 58.43 238.55 56.66C238.39 54.89 238.26 52.92 238.16 50.73C238.1 48.55 238.08 46.29 238.08 43.95C238.08 42.91 238.08 41.89 238.08 40.9C238.08 39.86 238.1 38.82 238.16 37.78L237.77 37.78C236.88 37.78 236.13 37.47 235.5 36.85C234.83 36.22 234.49 35.47 234.49 34.59L234.49 29.75C234.49 29.13 234.65 28.58 234.96 28.11L243.85 13.21L243.85 13.21ZM307.61 44.26C307.61 47.64 306.99 50.84 305.74 53.85C304.49 56.87 302.8 59.52 300.67 61.81C298.59 64.04 296.17 65.81 293.42 67.11C290.71 68.41 287.88 69.06 284.91 69.06C281.95 69.06 279.17 68.44 276.57 67.19C273.97 65.89 271.68 64.15 269.7 61.96C267.78 59.73 266.25 57.13 265.1 54.16C264.01 51.15 263.46 47.95 263.46 44.57C263.46 40.46 264.06 36.9 265.26 33.88C266.51 30.87 268.14 28.37 270.17 26.4C272.2 24.42 274.51 22.94 277.11 21.95C279.71 20.96 282.37 20.47 285.07 20.47C287.88 20.47 290.61 20.99 293.26 22.03C295.96 23.02 298.38 24.52 300.51 26.55C302.65 28.53 304.36 31 305.66 33.96C306.96 36.93 307.61 40.36 307.61 44.26ZM285.46 37.32C284.52 37.32 283.61 37.55 282.73 38.02C281.9 38.43 281.17 39.03 280.55 39.81C279.92 40.59 279.43 41.5 279.06 42.54C278.7 43.58 278.52 44.67 278.52 45.82C278.52 47.01 278.7 48.13 279.06 49.17C279.43 50.16 279.92 51.04 280.55 51.82C281.17 52.6 281.9 53.23 282.73 53.7C283.61 54.11 284.52 54.32 285.46 54.32C286.45 54.32 287.36 54.11 288.19 53.7C289.07 53.23 289.83 52.6 290.45 51.82C291.08 51.04 291.57 50.16 291.93 49.17C292.3 48.13 292.48 47.01 292.48 45.82C292.48 44.67 292.3 43.58 291.93 42.54C291.57 41.5 291.08 40.59 290.45 39.81C289.83 39.03 289.07 38.43 288.19 38.02C287.36 37.55 286.45 37.32 285.46 37.32ZM334.4 11.34C334.4 10.56 334.66 9.89 335.18 9.31C335.7 8.69 336.38 8.33 337.21 8.22C338.82 7.96 340.38 7.81 341.89 7.75C343.4 7.65 344.85 7.6 346.26 7.6C351.4 7.6 355.85 8.25 359.59 9.55C363.34 10.8 366.41 12.46 368.8 14.54C371.24 16.57 373.04 18.91 374.18 21.56C375.32 24.16 375.9 26.81 375.9 29.52C375.9 32.06 375.4 34.56 374.41 37C373.48 39.45 372.07 41.63 370.2 43.56C368.38 45.48 366.12 47.07 363.42 48.31C360.76 49.51 357.72 50.16 354.29 50.26C353.93 50.37 353.74 50.55 353.74 50.81L353.74 64.3C353.74 65.19 353.43 65.97 352.81 66.64C352.18 67.27 351.43 67.58 350.55 67.58L336.82 67.58C335.93 67.58 335.18 67.27 334.56 66.64C333.93 65.97 333.62 65.19 333.62 64.3L334.4 11.34ZM353.51 35.05C353.51 35.26 353.56 35.39 353.67 35.44C353.87 35.55 354.03 35.57 354.13 35.52C354.55 35.42 355.1 35.26 355.77 35.05C356.5 34.79 357.18 34.43 357.8 33.96C358.48 33.49 359.02 32.92 359.44 32.25C359.91 31.57 360.11 30.76 360.06 29.83C360.01 28.89 359.75 28.11 359.28 27.49C358.81 26.81 358.27 26.27 357.64 25.85C357.02 25.43 356.37 25.12 355.69 24.91C355.07 24.71 354.55 24.55 354.13 24.45C353.93 24.45 353.77 24.47 353.67 24.52C353.56 24.63 353.51 24.78 353.51 24.99L353.51 35.05ZM378.48 12.43C378.48 11.55 378.77 10.82 379.34 10.25C379.91 9.63 380.64 9.26 381.53 9.16L390.18 8.69C391.17 8.69 391.95 8.98 392.52 9.55C393.2 10.12 393.56 10.87 393.62 11.81L395.41 64.85C395.46 65.68 395.18 66.46 394.55 67.19C393.82 67.81 393.04 68.13 392.21 68.13L382.23 68.05C381.34 68 380.59 67.68 379.97 67.11C379.34 66.49 379.03 65.73 379.03 64.85L378.48 12.43L378.48 12.43ZM436.35 42.31C436.35 43.14 436.06 43.87 435.49 44.49C434.97 45.12 434.27 45.48 433.39 45.58C431.83 45.74 430.16 45.87 428.39 45.97C426.68 46.08 425.04 46.18 423.48 46.29C421.92 46.39 420.52 46.49 419.27 46.6C418.07 46.65 417.21 46.7 416.69 46.75C416.43 46.75 416.3 46.91 416.3 47.22C416.25 47.48 416.2 47.85 416.15 48.31C416.15 48.73 416.15 49.2 416.15 49.72C416.15 50.76 416.25 51.77 416.46 52.76C416.72 53.75 417.27 54.37 418.1 54.63C418.51 54.79 418.98 54.79 419.5 54.63C420.07 54.48 420.65 54.22 421.22 53.85C421.79 53.49 422.36 53.1 422.93 52.68C423.51 52.21 424.03 51.75 424.49 51.28C425.12 50.65 425.85 50.34 426.68 50.34C427.56 50.34 428.34 50.68 429.02 51.36L434.09 56.74C434.71 57.36 435.02 58.09 435.02 58.92C435.02 59.65 434.74 60.35 434.17 61.03C433.54 61.81 432.68 62.67 431.59 63.6C430.55 64.49 429.28 65.32 427.77 66.1C426.26 66.83 424.52 67.42 422.54 67.89C420.62 68.31 418.46 68.41 416.07 68.2C412.95 68 410.25 67.32 407.96 66.18C405.72 64.98 403.88 63.47 402.42 61.65C400.96 59.78 399.9 57.65 399.22 55.26C398.55 52.81 398.21 50.21 398.21 47.46C398.21 46.16 398.29 44.8 398.44 43.4C398.86 39.66 399.69 36.43 400.94 33.73C402.19 30.97 403.69 28.71 405.46 26.94C407.23 25.17 409.15 23.87 411.23 23.04C413.37 22.16 415.47 21.74 417.55 21.79C420.72 21.85 423.45 22.44 425.74 23.59C428.08 24.68 430.03 26.16 431.59 28.03C433.15 29.91 434.32 32.09 435.1 34.59C435.88 37.03 436.3 39.6 436.35 42.31ZM417.08 37C417.08 37.16 417.14 37.29 417.24 37.39C417.4 37.55 417.53 37.63 417.63 37.63L422.23 37.55C422.39 37.55 422.54 37.47 422.7 37.32C422.8 37.21 422.83 37.06 422.78 36.85C422.67 36.48 422.54 36.02 422.39 35.44C422.23 34.87 422.02 34.35 421.76 33.88C421.5 33.42 421.17 33.05 420.75 32.79C420.39 32.48 419.97 32.43 419.5 32.64C419.03 32.84 418.64 33.13 418.33 33.49C418.02 33.86 417.76 34.25 417.55 34.66C417.4 35.08 417.27 35.5 417.16 35.91C417.11 36.33 417.08 36.69 417.08 37ZM467.5 25.46C467.66 25.62 467.84 25.64 468.05 25.54C468.21 25.49 468.34 25.33 468.44 25.07L468.44 24.99C468.54 24.16 468.88 23.48 469.45 22.96C470.08 22.44 470.78 22.18 471.56 22.18L480.3 22.11C481.18 22.11 481.93 22.42 482.56 23.04C483.18 23.67 483.52 24.42 483.57 25.3L484.2 64.77C484.2 65.6 483.91 66.38 483.34 67.11C482.71 67.74 481.93 68.05 481 68.05L472.42 68.13C471.69 68.13 471.01 67.92 470.39 67.5C469.82 67.03 469.45 66.44 469.3 65.71L468.83 63.91C468.78 63.76 468.65 63.63 468.44 63.52C468.34 63.47 468.18 63.5 467.97 63.6C465.79 65.27 463.66 66.49 461.58 67.27C459.5 68 457.49 68.36 455.57 68.36C453.18 68.36 450.97 67.79 448.94 66.64C446.96 65.5 445.25 63.86 443.79 61.73C442.39 59.6 441.27 57.02 440.44 54.01C439.66 50.94 439.29 47.51 439.35 43.71C439.4 39.66 439.97 36.28 441.06 33.57C442.21 30.87 443.64 28.71 445.35 27.1C447.07 25.43 448.99 24.26 451.12 23.59C453.26 22.86 455.36 22.5 457.44 22.5C459.52 22.5 461.45 22.78 463.21 23.35C465.03 23.87 466.46 24.58 467.5 25.46ZM467.58 49.56C467.74 49.51 467.82 49.38 467.82 49.17L467.82 42.85C467.82 42.65 467.69 42.49 467.43 42.39C466.91 42.23 466.39 42.13 465.87 42.07C465.4 42.02 464.96 42 464.54 42C463.34 42 462.3 42.2 461.42 42.62C460.54 43.04 459.78 43.56 459.16 44.18C458.59 44.8 458.14 45.51 457.83 46.29C457.57 47.07 457.44 47.85 457.44 48.63C457.44 49.72 457.73 50.65 458.3 51.43C458.92 52.21 459.83 52.6 461.03 52.6C461.86 52.6 462.82 52.37 463.92 51.9C465.01 51.43 466.23 50.65 467.58 49.56ZM518.25 28.5L516.15 34.35C515.84 35.18 515.32 35.81 514.59 36.22C513.86 36.59 513.11 36.64 512.33 36.38C511.86 36.28 511.36 36.17 510.84 36.07C510.32 35.96 509.8 35.91 509.28 35.91C508.5 35.91 507.8 36.07 507.18 36.38C506.55 36.64 506.14 37.16 505.93 37.94C505.77 38.62 505.98 39.21 506.55 39.73C507.18 40.25 507.96 40.8 508.89 41.37C509.88 41.89 510.95 42.52 512.09 43.24C513.29 43.92 514.35 44.78 515.29 45.82C516.28 46.81 517.03 48.03 517.55 49.48C518.12 50.89 518.31 52.63 518.1 54.71C517.84 57.26 517.01 59.44 515.6 61.26C514.25 63.08 512.56 64.59 510.53 65.79C508.5 66.93 506.24 67.76 503.75 68.28C501.25 68.85 498.75 69.14 496.26 69.14C495.69 69.14 495.09 69.11 494.46 69.06C493.89 69.06 493.32 69.04 492.75 68.98C491.97 68.88 491.32 68.57 490.8 68.05C490.28 67.48 489.97 66.83 489.86 66.1L489.32 59.7C489.21 58.82 489.42 58.06 489.94 57.44C490.46 56.76 491.16 56.37 492.05 56.27C492.72 56.17 493.4 56.01 494.07 55.8C494.75 55.59 495.32 55.28 495.79 54.87C496.26 54.45 496.6 53.93 496.8 53.31C497.01 52.63 496.99 51.8 496.73 50.81C496.31 49.35 495.5 48.13 494.31 47.14C493.16 46.16 491.97 45.12 490.72 44.02C489.52 42.88 488.43 41.58 487.44 40.12C486.51 38.62 486.04 36.64 486.04 34.2C486.04 33.31 486.12 32.35 486.27 31.31C486.53 29.59 487.13 28.16 488.07 27.02C489.06 25.82 490.28 24.89 491.73 24.21C493.19 23.48 494.83 22.96 496.65 22.65C498.47 22.34 500.37 22.18 502.34 22.18C504.84 22.18 507.28 22.39 509.67 22.81C512.12 23.22 514.3 23.74 516.23 24.37C517.06 24.63 517.68 25.17 518.1 26.01C518.51 26.84 518.57 27.67 518.25 28.5ZM549.31 25.46C549.47 25.62 549.65 25.64 549.86 25.54C550.01 25.49 550.14 25.33 550.25 25.07L550.25 24.99C550.35 24.16 550.69 23.48 551.26 22.96C551.89 22.44 552.59 22.18 553.37 22.18L562.1 22.11C562.99 22.11 563.74 22.42 564.37 23.04C564.99 23.67 565.33 24.42 565.38 25.3L566 64.77C566 65.6 565.72 66.38 565.15 67.11C564.52 67.74 563.74 68.05 562.81 68.05L554.23 68.13C553.5 68.13 552.82 67.92 552.2 67.5C551.63 67.03 551.26 66.44 551.11 65.71L550.64 63.91C550.59 63.76 550.46 63.63 550.25 63.52C550.14 63.47 549.99 63.5 549.78 63.6C547.6 65.27 545.46 66.49 543.38 67.27C541.3 68 539.3 68.36 537.38 68.36C534.99 68.36 532.78 67.79 530.75 66.64C528.77 65.5 527.06 63.86 525.6 61.73C524.2 59.6 523.08 57.02 522.25 54.01C521.47 50.94 521.1 47.51 521.15 43.71C521.21 39.66 521.78 36.28 522.87 33.57C524.01 30.87 525.44 28.71 527.16 27.1C528.88 25.43 530.8 24.26 532.93 23.59C535.06 22.86 537.17 22.5 539.25 22.5C541.33 22.5 543.25 22.78 545.02 23.35C546.84 23.87 548.27 24.58 549.31 25.46ZM549.39 49.56C549.55 49.51 549.62 49.38 549.62 49.17L549.62 42.85C549.62 42.65 549.49 42.49 549.23 42.39C548.71 42.23 548.19 42.13 547.67 42.07C547.21 42.02 546.76 42 546.35 42C545.15 42 544.11 42.2 543.23 42.62C542.34 43.04 541.59 43.56 540.97 44.18C540.39 44.8 539.95 45.51 539.64 46.29C539.38 47.07 539.25 47.85 539.25 48.63C539.25 49.72 539.54 50.65 540.11 51.43C540.73 52.21 541.64 52.6 542.84 52.6C543.67 52.6 544.63 52.37 545.72 51.9C546.82 51.43 548.04 50.65 549.39 49.56ZM605.41 68.2L596.28 67.97C595.34 67.87 594.59 67.53 594.02 66.96C593.45 66.33 593.16 65.55 593.16 64.62C593.21 63.52 593.27 62.28 593.32 60.87C593.37 59.42 593.4 57.88 593.4 56.27C593.4 54.35 593.34 52.4 593.24 50.42C593.14 48.44 592.95 46.62 592.69 44.96C592.43 43.3 592.07 41.89 591.6 40.75C591.13 39.6 590.53 38.9 589.81 38.64C589.18 38.43 588.64 38.67 588.17 39.34C587.7 39.97 587.31 40.9 587 42.15C586.69 43.4 586.43 44.88 586.22 46.6C586.01 48.26 585.86 50 585.75 51.82C585.65 53.64 585.57 55.46 585.52 57.28C585.52 59.1 585.52 60.77 585.52 62.28L585.52 64.85C585.52 65.79 585.21 66.57 584.58 67.19C583.96 67.81 583.2 68.13 582.32 68.13L572.88 68.13C572 68.18 571.24 67.89 570.62 67.27C570 66.64 569.68 65.89 569.68 65.01L569.37 25.3C569.37 24.42 569.68 23.67 570.31 23.04C570.93 22.42 571.69 22.11 572.57 22.11L580.29 22.03C581.23 22.03 582.01 22.34 582.63 22.96C583.1 23.43 583.39 24 583.49 24.68C583.59 24.94 583.72 25.1 583.88 25.15C584.03 25.25 584.22 25.2 584.43 24.99C585.52 23.95 587.13 23.07 589.26 22.34C591.39 21.61 593.63 21.3 595.97 21.4C598.78 21.51 601.07 22.37 602.83 23.98C604.65 25.59 606.06 27.67 607.05 30.22C608.09 32.77 608.79 35.63 609.15 38.8C609.57 41.97 609.78 45.19 609.78 48.47C609.78 51.64 609.65 54.68 609.39 57.6C609.18 60.51 608.94 63.08 608.68 65.32C608.58 66.2 608.21 66.9 607.59 67.42C606.97 67.94 606.24 68.2 605.41 68.2ZM621.21 13.21C621.83 12.17 622.74 11.65 623.94 11.65L628.69 11.5C629.53 11.5 630.33 11.84 631.11 12.51C631.74 13.24 632.02 14.05 631.97 14.93C631.92 15.81 631.87 16.83 631.81 17.97C631.76 19.06 631.68 20.26 631.58 21.56C631.58 21.66 631.63 21.82 631.74 22.03C631.84 22.13 631.97 22.18 632.13 22.18L635.01 22.18C635.84 22.13 636.6 22.44 637.27 23.12C638 23.74 638.31 24.5 638.21 25.38L638.05 34.27C638.05 35.16 637.74 35.91 637.12 36.54C636.55 37.11 635.82 37.42 634.93 37.47L631.34 37.47C630.98 37.47 630.8 37.65 630.8 38.02C630.75 39.16 630.7 40.23 630.64 41.22C630.64 42.15 630.64 43.06 630.64 43.95C630.64 44.83 630.64 45.61 630.64 46.29C630.7 46.91 630.75 47.43 630.8 47.85C630.96 49.46 631.55 50.47 632.59 50.89C633.63 51.25 634.73 51.38 635.87 51.28C636.86 51.12 637.71 51.41 638.44 52.14C639.22 52.81 639.56 53.64 639.46 54.63L638.83 65.32C638.78 66.15 638.47 66.85 637.9 67.42C637.38 68 636.68 68.31 635.79 68.36C635.38 68.41 634.93 68.44 634.46 68.44C634 68.44 633.48 68.44 632.9 68.44C631.66 68.44 630.31 68.39 628.85 68.28C627.39 68.18 625.96 67.97 624.56 67.66C623.21 67.29 621.93 66.83 620.74 66.25C619.54 65.68 618.58 64.93 617.85 63.99C617.38 63.42 616.99 62.51 616.68 61.26C616.37 59.96 616.11 58.43 615.9 56.66C615.75 54.89 615.62 52.92 615.51 50.73C615.46 48.55 615.43 46.29 615.43 43.95C615.43 42.91 615.43 41.89 615.43 40.9C615.43 39.86 615.46 38.82 615.51 37.78L615.12 37.78C614.24 37.78 613.48 37.47 612.86 36.85C612.18 36.22 611.84 35.47 611.84 34.59L611.84 29.75C611.84 29.13 612 28.58 612.31 28.11L621.21 13.21L621.21 13.21ZM108.31 82.43C108.31 81.55 108.59 80.8 109.16 80.17C109.79 79.55 110.54 79.24 111.43 79.24L143.95 78.61C144.89 78.61 145.67 78.92 146.29 79.55C146.97 80.22 147.31 80.98 147.31 81.81L147.31 91.09C147.31 91.98 146.99 92.73 146.37 93.35C145.8 93.98 145.07 94.32 144.19 94.37L131.24 95.07C130.87 95.07 130.69 95.25 130.69 95.62L130.69 99.2C130.69 99.57 130.87 99.75 131.24 99.75L136 99.75C136.93 99.75 137.71 100.09 138.34 100.76C138.96 101.39 139.27 102.17 139.27 103.1L138.73 111.76C138.67 112.65 138.34 113.37 137.71 113.95C137.14 114.52 136.41 114.8 135.53 114.8L130.15 114.8C129.78 114.8 129.6 114.99 129.6 115.35L129.44 119.48C129.44 119.54 129.5 119.67 129.6 119.87C129.81 119.98 129.96 120.03 130.07 120.03L143.87 119.56C144.81 119.56 145.59 119.87 146.21 120.5C146.89 121.12 147.23 121.9 147.23 122.84L146.92 134.93C146.92 135.81 146.58 136.57 145.9 137.19C145.28 137.81 144.52 138.13 143.64 138.13L111.35 137.89C110.46 137.89 109.71 137.58 109.09 136.96C108.46 136.28 108.15 135.5 108.15 134.62L108.31 82.43L108.31 82.43ZM188.77 97.41L179.49 114.18C179.38 114.34 179.38 114.49 179.49 114.65L188.61 133.45C189.19 134.49 189.13 135.53 188.46 136.57C187.78 137.55 186.87 138.05 185.73 138.05L174.11 137.97C173.38 137.97 172.73 137.76 172.16 137.35C171.64 136.93 171.27 136.38 171.06 135.71L169.27 129.7C169.27 129.44 169.11 129.31 168.8 129.31C168.54 129.31 168.39 129.42 168.33 129.62L164.98 136.1C164.36 137.29 163.39 137.89 162.09 137.89L152.34 137.81C151.25 137.81 150.37 137.32 149.69 136.33C149.07 135.34 148.99 134.33 149.46 133.29L158.04 114.73C158.04 114.52 158.01 114.36 157.96 114.26L148.91 96.86C148.34 95.82 148.37 94.78 148.99 93.74C149.61 92.7 150.5 92.18 151.64 92.18L161.39 91.95C162.07 91.9 162.67 92.05 163.19 92.42C163.76 92.78 164.17 93.28 164.43 93.9L167.79 102.17C167.89 102.38 168.05 102.48 168.26 102.48C168.52 102.48 168.7 102.38 168.8 102.17L172.47 94.06C172.73 93.48 173.12 93.02 173.64 92.65C174.21 92.29 174.83 92.13 175.51 92.18L186.12 92.65C187.31 92.65 188.2 93.2 188.77 94.29C189.34 95.28 189.34 96.32 188.77 97.41ZM208.03 95.38C209.12 94.5 210.55 93.8 212.32 93.28C214.08 92.76 215.98 92.5 218.01 92.5C220.09 92.5 222.2 92.86 224.33 93.59C226.46 94.26 228.38 95.43 230.1 97.1C231.87 98.71 233.3 100.87 234.39 103.57C235.53 106.28 236.13 109.66 236.18 113.71C236.24 117.77 235.72 121.33 234.62 124.4C233.53 127.47 232.05 130.01 230.18 132.04C228.36 134.07 226.28 135.6 223.94 136.64C221.6 137.68 219.18 138.2 216.68 138.2C215.18 138.2 213.69 138.02 212.24 137.66C210.83 137.29 209.46 136.75 208.1 136.02C207.9 135.86 207.71 135.86 207.56 136.02C207.35 136.12 207.25 136.28 207.25 136.49L207.79 155.99C207.79 156.87 207.48 157.63 206.86 158.25C206.28 158.87 205.56 159.21 204.67 159.26L194.45 159.5C193.62 159.55 192.84 159.26 192.11 158.64C191.49 157.96 191.18 157.18 191.18 156.3L191.49 94.91C191.49 94.03 191.8 93.28 192.43 92.65C193.05 92.03 193.8 91.72 194.69 91.72L203.97 91.72C204.85 91.72 205.58 92 206.15 92.57C206.78 93.15 207.12 93.85 207.17 94.68L207.17 94.99C207.17 95.2 207.27 95.36 207.48 95.46C207.69 95.56 207.87 95.54 208.03 95.38ZM207.71 121.75C208.75 122.21 209.69 122.55 210.52 122.76C211.35 122.92 212.13 122.99 212.86 122.99C214.68 122.99 216.06 122.5 217 121.51C217.93 120.47 218.4 119.33 218.4 118.08C218.4 116.83 217.93 115.69 217 114.65C216.11 113.61 214.76 113.09 212.94 113.09C211.48 113.09 209.74 113.56 207.71 114.49C207.51 114.65 207.4 114.83 207.4 115.04L207.4 121.28C207.4 121.49 207.51 121.64 207.71 121.75ZM277.76 112.31C277.76 113.14 277.47 113.87 276.9 114.49C276.38 115.12 275.68 115.48 274.79 115.58C273.24 115.74 271.57 115.87 269.8 115.97C268.09 116.08 266.45 116.18 264.89 116.29C263.33 116.39 261.93 116.49 260.68 116.6C259.48 116.65 258.62 116.7 258.1 116.75C257.84 116.75 257.71 116.91 257.71 117.22C257.66 117.48 257.61 117.85 257.56 118.31C257.56 118.73 257.56 119.2 257.56 119.72C257.56 120.76 257.66 121.77 257.87 122.76C258.13 123.75 258.68 124.37 259.51 124.63C259.92 124.79 260.39 124.79 260.91 124.63C261.48 124.48 262.06 124.22 262.63 123.85C263.2 123.49 263.77 123.1 264.34 122.68C264.92 122.21 265.44 121.75 265.9 121.28C266.53 120.65 267.26 120.34 268.09 120.34C268.97 120.34 269.75 120.68 270.43 121.36L275.5 126.74C276.12 127.36 276.43 128.09 276.43 128.92C276.43 129.65 276.15 130.35 275.57 131.03C274.95 131.81 274.09 132.67 273 133.6C271.96 134.49 270.69 135.32 269.18 136.1C267.67 136.83 265.93 137.42 263.95 137.89C262.03 138.31 259.87 138.41 257.48 138.2C254.36 138 251.66 137.32 249.37 136.17C247.13 134.98 245.29 133.47 243.83 131.65C242.37 129.78 241.31 127.65 240.63 125.26C239.96 122.81 239.62 120.21 239.62 117.46C239.62 116.16 239.7 114.8 239.85 113.4C240.27 109.66 241.1 106.43 242.35 103.73C243.6 100.97 245.1 98.71 246.87 96.94C248.64 95.17 250.56 93.87 252.64 93.04C254.78 92.16 256.88 91.74 258.96 91.79C262.13 91.85 264.86 92.44 267.15 93.59C269.49 94.68 271.44 96.16 273 98.03C274.56 99.91 275.73 102.09 276.51 104.59C277.29 107.03 277.71 109.6 277.76 112.31ZM258.49 107C258.49 107.16 258.54 107.29 258.65 107.39C258.81 107.55 258.94 107.63 259.04 107.63L263.64 107.55C263.8 107.55 263.95 107.47 264.11 107.32C264.21 107.21 264.24 107.06 264.19 106.85C264.08 106.48 263.95 106.02 263.8 105.44C263.64 104.87 263.43 104.35 263.17 103.88C262.91 103.42 262.57 103.05 262.16 102.79C261.79 102.48 261.38 102.43 260.91 102.64C260.44 102.84 260.05 103.13 259.74 103.49C259.43 103.86 259.17 104.25 258.96 104.66C258.81 105.08 258.68 105.5 258.57 105.91C258.52 106.33 258.49 106.69 258.49 107ZM280.76 95.54C280.76 94.71 281.01 94 281.54 93.43C282.11 92.81 282.81 92.44 283.64 92.34L291.99 91.56C292.98 91.46 293.81 91.72 294.48 92.34C295.16 93.12 295.5 93.93 295.5 94.76L295.5 95.85C295.5 96.11 295.63 96.29 295.89 96.4C296.04 96.5 296.23 96.45 296.43 96.24C297.68 94.73 298.98 93.67 300.33 93.04C301.74 92.42 303.14 92.11 304.54 92.11C306.78 92.11 308.97 92.76 311.1 94.06C313.28 95.36 315.15 96.84 316.71 98.5C317.29 99.07 317.57 99.75 317.57 100.53C317.62 101.26 317.44 101.93 317.03 102.56L311.57 110.2C311.1 110.93 310.45 111.37 309.62 111.53C308.84 111.68 308.08 111.55 307.35 111.14C306.78 110.77 306.13 110.49 305.4 110.28C304.68 110.02 303.92 109.89 303.14 109.89C302.47 109.89 301.79 109.99 301.11 110.2C300.44 110.41 299.76 110.8 299.09 111.37C298.77 111.68 298.49 112.2 298.23 112.93C298.02 113.61 297.84 114.44 297.68 115.43C297.58 116.42 297.5 117.53 297.45 118.78C297.4 119.98 297.37 121.23 297.37 122.53C297.37 124.76 297.42 126.97 297.53 129.16C297.63 131.34 297.73 133.19 297.84 134.69C297.94 135.58 297.66 136.38 296.98 137.11C296.3 137.79 295.52 138.13 294.64 138.13L283.95 138.2C283.07 138.2 282.32 137.89 281.69 137.27C281.07 136.64 280.76 135.89 280.76 135L280.76 95.54L280.76 95.54ZM320.45 95.77C320.45 94.89 320.77 94.13 321.39 93.51C322.01 92.89 322.77 92.57 323.65 92.57L333.79 92.57C334.68 92.57 335.43 92.89 336.05 93.51C336.68 94.08 336.99 94.81 336.99 95.69L337.77 134.77C337.77 135.66 337.46 136.41 336.83 137.03C336.11 137.76 335.33 138.07 334.49 137.97L323.11 137.89C322.17 137.89 321.42 137.55 320.84 136.88C320.22 136.25 319.91 135.5 319.91 134.62L320.45 95.77ZM328.64 73C327.29 73 326.04 73.23 324.9 73.7C323.76 74.11 322.74 74.71 321.86 75.49C321.03 76.22 320.38 77.1 319.91 78.14C319.39 79.13 319.13 80.2 319.13 81.34C319.13 82.54 319.39 83.66 319.91 84.7C320.38 85.68 321.03 86.57 321.86 87.35C322.74 88.08 323.76 88.67 324.9 89.14C326.04 89.56 327.29 89.77 328.64 89.77C329.94 89.77 331.17 89.56 332.31 89.14C333.45 88.67 334.44 88.08 335.27 87.35C336.16 86.57 336.83 85.68 337.3 84.7C337.82 83.66 338.08 82.54 338.08 81.34C338.08 80.2 337.82 79.13 337.3 78.14C336.83 77.1 336.16 76.22 335.27 75.49C334.44 74.71 333.45 74.11 332.31 73.7C331.17 73.23 329.94 73 328.64 73ZM379.07 112.31C379.07 113.14 378.78 113.87 378.21 114.49C377.69 115.12 376.99 115.48 376.1 115.58C374.54 115.74 372.88 115.87 371.11 115.97C369.4 116.08 367.76 116.18 366.2 116.29C364.64 116.39 363.23 116.49 361.99 116.6C360.79 116.65 359.93 116.7 359.41 116.75C359.15 116.75 359.02 116.91 359.02 117.22C358.97 117.48 358.92 117.85 358.87 118.31C358.87 118.73 358.87 119.2 358.87 119.72C358.87 120.76 358.97 121.77 359.18 122.76C359.44 123.75 359.98 124.37 360.82 124.63C361.23 124.79 361.7 124.79 362.22 124.63C362.79 124.48 363.36 124.22 363.94 123.85C364.51 123.49 365.08 123.1 365.65 122.68C366.22 122.21 366.74 121.75 367.21 121.28C367.84 120.65 368.56 120.34 369.4 120.34C370.28 120.34 371.06 120.68 371.74 121.36L376.81 126.74C377.43 127.36 377.74 128.09 377.74 128.92C377.74 129.65 377.46 130.35 376.88 131.03C376.26 131.81 375.4 132.67 374.31 133.6C373.27 134.49 372 135.32 370.49 136.1C368.98 136.83 367.24 137.42 365.26 137.89C363.34 138.31 361.18 138.41 358.79 138.2C355.67 138 352.96 137.32 350.68 136.17C348.44 134.98 346.59 133.47 345.14 131.65C343.68 129.78 342.62 127.65 341.94 125.26C341.26 122.81 340.93 120.21 340.93 117.46C340.93 116.16 341 114.8 341.16 113.4C341.58 109.66 342.41 106.43 343.66 103.73C344.9 100.97 346.41 98.71 348.18 96.94C349.95 95.17 351.87 93.87 353.95 93.04C356.08 92.16 358.19 91.74 360.27 91.79C363.44 91.85 366.17 92.44 368.46 93.59C370.8 94.68 372.75 96.16 374.31 98.03C375.87 99.91 377.04 102.09 377.82 104.59C378.6 107.03 379.02 109.6 379.07 112.31ZM359.8 107C359.8 107.16 359.85 107.29 359.96 107.39C360.11 107.55 360.24 107.63 360.35 107.63L364.95 107.55C365.11 107.55 365.26 107.47 365.42 107.32C365.52 107.21 365.55 107.06 365.5 106.85C365.39 106.48 365.26 106.02 365.11 105.44C364.95 104.87 364.74 104.35 364.48 103.88C364.22 103.42 363.88 103.05 363.47 102.79C363.1 102.48 362.69 102.43 362.22 102.64C361.75 102.84 361.36 103.13 361.05 103.49C360.74 103.86 360.48 104.25 360.27 104.66C360.11 105.08 359.98 105.5 359.88 105.91C359.83 106.33 359.8 106.69 359.8 107ZM418.1 138.2L408.97 137.97C408.04 137.87 407.28 137.53 406.71 136.96C406.14 136.33 405.85 135.55 405.85 134.62C405.91 133.52 405.96 132.28 406.01 130.87C406.06 129.42 406.09 127.88 406.09 126.27C406.09 124.35 406.04 122.4 405.93 120.42C405.83 118.44 405.65 116.62 405.39 114.96C405.13 113.3 404.76 111.89 404.29 110.75C403.83 109.6 403.23 108.9 402.5 108.64C401.88 108.43 401.33 108.67 400.86 109.34C400.39 109.97 400 110.9 399.69 112.15C399.38 113.4 399.12 114.88 398.91 116.6C398.7 118.26 398.55 120 398.44 121.82C398.34 123.64 398.26 125.46 398.21 127.28C398.21 129.1 398.21 130.77 398.21 132.28L398.21 134.85C398.21 135.78 397.9 136.57 397.27 137.19C396.65 137.81 395.9 138.13 395.01 138.13L385.57 138.13C384.69 138.18 383.94 137.89 383.31 137.27C382.69 136.64 382.38 135.89 382.38 135L382.06 95.3C382.06 94.42 382.38 93.67 383 93.04C383.62 92.42 384.38 92.11 385.26 92.11L392.98 92.03C393.92 92.03 394.7 92.34 395.32 92.96C395.79 93.43 396.08 94 396.18 94.68C396.29 94.94 396.42 95.1 396.57 95.15C396.73 95.25 396.91 95.2 397.12 94.99C398.21 93.95 399.82 93.07 401.95 92.34C404.09 91.61 406.32 91.3 408.66 91.4C411.47 91.51 413.76 92.37 415.53 93.98C417.35 95.59 418.75 97.67 419.74 100.22C420.78 102.77 421.48 105.63 421.84 108.8C422.26 111.97 422.47 115.19 422.47 118.47C422.47 121.64 422.34 124.68 422.08 127.6C421.87 130.51 421.64 133.08 421.38 135.32C421.27 136.2 420.91 136.9 420.28 137.42C419.66 137.94 418.93 138.2 418.1 138.2ZM460.19 105.76L452.78 108.72C452.05 108.98 451.32 109.01 450.59 108.8C449.86 108.59 449.29 108.15 448.88 107.47C447.94 106.02 446.8 105.29 445.44 105.29C444.14 105.29 442.95 106.07 441.86 107.63C440.82 109.14 440.3 111.45 440.3 114.57C440.3 114.93 440.3 115.3 440.3 115.66C440.3 116.03 440.32 116.42 440.37 116.83C440.63 119.38 441.36 121.33 442.56 122.68C443.75 123.98 445 124.63 446.3 124.63C446.93 124.63 447.52 124.48 448.1 124.16C448.67 123.85 449.16 123.33 449.58 122.6C449.99 121.93 450.54 121.46 451.22 121.2C451.89 120.89 452.59 120.86 453.32 121.12L460.89 123.38C461.82 123.75 462.47 124.32 462.84 125.1C463.2 125.93 463.23 126.79 462.92 127.67C462.34 129.08 461.56 130.46 460.58 131.81C459.64 133.11 458.5 134.3 457.14 135.39C455.84 136.49 454.36 137.4 452.7 138.13C451.03 138.8 449.21 139.19 447.24 139.3C443.7 139.45 440.61 138.91 437.96 137.66C435.36 136.36 433.17 134.64 431.4 132.51C429.69 130.33 428.36 127.83 427.43 125.02C426.54 122.21 426.02 119.33 425.87 116.36C425.71 113.19 425.97 110.1 426.65 107.08C427.37 104.01 428.54 101.28 430.16 98.89C431.82 96.5 433.93 94.58 436.47 93.12C439.07 91.61 442.14 90.81 445.68 90.7C449.01 90.6 452.15 91.43 455.12 93.2C458.08 94.97 460.37 97.72 461.98 101.47C462.29 102.35 462.29 103.18 461.98 103.96C461.62 104.79 461.02 105.39 460.19 105.76ZM501.71 112.31C501.71 113.14 501.42 113.87 500.85 114.49C500.33 115.12 499.62 115.48 498.74 115.58C497.18 115.74 495.52 115.87 493.75 115.97C492.03 116.08 490.39 116.18 488.83 116.29C487.27 116.39 485.87 116.49 484.62 116.6C483.43 116.65 482.57 116.7 482.05 116.75C481.79 116.75 481.66 116.91 481.66 117.22C481.61 117.48 481.55 117.85 481.5 118.31C481.5 118.73 481.5 119.2 481.5 119.72C481.5 120.76 481.61 121.77 481.81 122.76C482.07 123.75 482.62 124.37 483.45 124.63C483.87 124.79 484.34 124.79 484.86 124.63C485.43 124.48 486 124.22 486.57 123.85C487.14 123.49 487.72 123.1 488.29 122.68C488.86 122.21 489.38 121.75 489.85 121.28C490.47 120.65 491.2 120.34 492.03 120.34C492.92 120.34 493.7 120.68 494.37 121.36L499.44 126.74C500.07 127.36 500.38 128.09 500.38 128.92C500.38 129.65 500.09 130.35 499.52 131.03C498.9 131.81 498.04 132.67 496.95 133.6C495.91 134.49 494.63 135.32 493.12 136.1C491.62 136.83 489.87 137.42 487.9 137.89C485.97 138.31 483.82 138.41 481.42 138.2C478.3 138 475.6 137.32 473.31 136.17C471.08 134.98 469.23 133.47 467.77 131.65C466.32 129.78 465.25 127.65 464.58 125.26C463.9 122.81 463.56 120.21 463.56 117.46C463.56 116.16 463.64 114.8 463.8 113.4C464.21 109.66 465.04 106.43 466.29 103.73C467.54 100.97 469.05 98.71 470.82 96.94C472.58 95.17 474.51 93.87 476.59 93.04C478.72 92.16 480.83 91.74 482.91 91.79C486.08 91.85 488.81 92.44 491.1 93.59C493.44 94.68 495.39 96.16 496.95 98.03C498.51 99.91 499.68 102.09 500.46 104.59C501.24 107.03 501.65 109.6 501.71 112.31ZM482.44 107C482.44 107.16 482.49 107.29 482.59 107.39C482.75 107.55 482.88 107.63 482.98 107.63L487.59 107.55C487.74 107.55 487.9 107.47 488.05 107.32C488.16 107.21 488.18 107.06 488.13 106.85C488.03 106.48 487.9 106.02 487.74 105.44C487.59 104.87 487.38 104.35 487.12 103.88C486.86 103.42 486.52 103.05 486.1 102.79C485.74 102.48 485.32 102.43 484.86 102.64C484.39 102.84 484 103.13 483.69 103.49C483.37 103.86 483.11 104.25 482.91 104.66C482.75 105.08 482.62 105.5 482.52 105.91C482.46 106.33 482.44 106.69 482.44 107ZM535.24 98.5L533.13 104.35C532.82 105.18 532.3 105.81 531.57 106.22C530.84 106.59 530.09 106.64 529.31 106.38C528.84 106.28 528.35 106.17 527.83 106.07C527.31 105.96 526.79 105.91 526.27 105.91C525.49 105.91 524.79 106.07 524.16 106.38C523.54 106.64 523.12 107.16 522.92 107.94C522.76 108.62 522.97 109.21 523.54 109.73C524.16 110.25 524.94 110.8 525.88 111.37C526.87 111.89 527.93 112.52 529.08 113.24C530.27 113.92 531.34 114.78 532.28 115.82C533.26 116.81 534.02 118.03 534.54 119.48C535.11 120.89 535.29 122.63 535.08 124.71C534.82 127.26 533.99 129.44 532.59 131.26C531.24 133.08 529.55 134.59 527.52 135.78C525.49 136.93 523.23 137.76 520.73 138.28C518.24 138.85 515.74 139.14 513.24 139.14C512.67 139.14 512.07 139.11 511.45 139.06C510.88 139.06 510.31 139.03 509.73 138.98C508.95 138.88 508.3 138.57 507.78 138.05C507.26 137.48 506.95 136.83 506.85 136.1L506.3 129.7C506.2 128.82 506.41 128.06 506.93 127.44C507.45 126.76 508.15 126.37 509.03 126.27C509.71 126.17 510.38 126.01 511.06 125.8C511.74 125.59 512.31 125.28 512.78 124.87C513.24 124.45 513.58 123.93 513.79 123.31C514 122.63 513.97 121.8 513.71 120.81C513.3 119.35 512.49 118.13 511.29 117.14C510.15 116.16 508.95 115.12 507.71 114.02C506.51 112.88 505.42 111.58 504.43 110.12C503.49 108.62 503.03 106.64 503.03 104.2C503.03 103.31 503.1 102.35 503.26 101.31C503.52 99.59 504.12 98.16 505.05 97.02C506.04 95.82 507.26 94.89 508.72 94.21C510.18 93.48 511.81 92.96 513.63 92.65C515.45 92.34 517.35 92.18 519.33 92.18C521.82 92.18 524.27 92.39 526.66 92.81C529.1 93.22 531.29 93.74 533.21 94.37C534.04 94.63 534.67 95.17 535.08 96.01C535.5 96.84 535.55 97.67 535.24 98.5Z" stroke="#FF3151" stroke-opacity="1.000000" stroke-width="3.000000"/>
	</g>
</svg>
