<svg width="71" height="21" viewBox="0 0 71 21" fill="none" xmlns="http://www.w3.org/2000/svg">
<ellipse cx="9.48573" cy="6.10755" rx="5.03738" ry="4.31776" transform="rotate(-20.1092 9.48573 6.10755)" fill="url(#paint0_linear_92_19)"/>
<ellipse cx="11.4171" cy="17.662" rx="2.87851" ry="2.15888" transform="rotate(-20.1092 11.4171 17.662)" fill="url(#paint1_linear_92_19)"/>
<ellipse cx="2.48484" cy="13.6674" rx="1.74818" ry="1.31113" transform="rotate(-20.1092 2.48484 13.6674)" fill="url(#paint2_linear_92_19)"/>
<path fill-rule="evenodd" clip-rule="evenodd" d="M22.8881 13.7541C21.0548 14.3675 19.1281 13.6057 18.5465 12.0171C17.953 10.3962 18.9847 8.52835 20.8507 7.84513C21.7448 7.51777 22.6683 7.52177 23.453 7.79305L70.1962 10.7557L22.8881 13.7541Z" fill="url(#paint3_linear_92_19)"/>
<defs>
<linearGradient id="paint0_linear_92_19" x1="9.54642" y1="4.40661" x2="9.54642" y2="9.64026" gradientUnits="userSpaceOnUse">
<stop stop-color="white"/>
<stop offset="1" stop-color="#999999"/>
</linearGradient>
<linearGradient id="paint1_linear_92_19" x1="11.4518" y1="16.8115" x2="11.4518" y2="19.4284" gradientUnits="userSpaceOnUse">
<stop stop-color="white"/>
<stop offset="1" stop-color="#999999"/>
</linearGradient>
<linearGradient id="paint2_linear_92_19" x1="2.5059" y1="13.1509" x2="2.5059" y2="14.7401" gradientUnits="userSpaceOnUse">
<stop stop-color="white"/>
<stop offset="1" stop-color="#999999"/>
</linearGradient>
<linearGradient id="paint3_linear_92_19" x1="17.6635" y1="10.0445" x2="70.1957" y2="11.134" gradientUnits="userSpaceOnUse">
<stop stop-color="white"/>
<stop offset="1" stop-color="#999999" stop-opacity="0"/>
</linearGradient>
</defs>
</svg>
