<svg width="71" height="21" viewBox="0 0 71 21" fill="none" xmlns="http://www.w3.org/2000/svg">
<ellipse cx="5.03738" cy="4.31776" rx="5.03738" ry="4.31776" transform="matrix(-0.939039 -0.343811 -0.343811 0.939039 67.7289 3.78491)" fill="url(#paint0_linear_92_11)"/>
<ellipse cx="2.87851" cy="2.15888" rx="2.87851" ry="2.15888" transform="matrix(-0.939039 -0.343811 -0.343811 0.939039 63.028 16.6244)" fill="url(#paint1_linear_92_11)"/>
<ellipse cx="1.74818" cy="1.31113" rx="1.74818" ry="1.31113" transform="matrix(-0.939039 -0.343811 -0.343811 0.939039 70.6075 13.0372)" fill="url(#paint2_linear_92_11)"/>
<path fill-rule="evenodd" clip-rule="evenodd" d="M48.1118 13.7541C49.9451 14.3675 51.8718 13.6057 52.4534 12.0171C53.0468 10.3962 52.0152 8.52835 50.1492 7.84513C49.255 7.51777 48.3316 7.52177 47.5469 7.79305L0.803719 10.7557L48.1118 13.7541Z" fill="url(#paint3_linear_92_11)"/>
<defs>
<linearGradient id="paint0_linear_92_11" x1="5.09808" y1="2.61682" x2="5.09808" y2="7.85047" gradientUnits="userSpaceOnUse">
<stop stop-color="white"/>
<stop offset="1" stop-color="#999999"/>
</linearGradient>
<linearGradient id="paint1_linear_92_11" x1="2.91319" y1="1.30841" x2="2.91319" y2="3.92523" gradientUnits="userSpaceOnUse">
<stop stop-color="white"/>
<stop offset="1" stop-color="#999999"/>
</linearGradient>
<linearGradient id="paint2_linear_92_11" x1="1.76924" y1="0.794625" x2="1.76924" y2="2.38388" gradientUnits="userSpaceOnUse">
<stop stop-color="white"/>
<stop offset="1" stop-color="#999999"/>
</linearGradient>
<linearGradient id="paint3_linear_92_11" x1="53.3364" y1="10.0445" x2="0.804152" y2="11.134" gradientUnits="userSpaceOnUse">
<stop stop-color="white"/>
<stop offset="1" stop-color="#999999" stop-opacity="0"/>
</linearGradient>
</defs>
</svg>
