<svg width="35" height="13" viewBox="0 0 35 13" fill="none" xmlns="http://www.w3.org/2000/svg">
<path d="M1.27874 2.37051C4.2607 0.355632 22.4009 0.22504 31.0982 0.411603C35.8037 0.469982 36.2711 3.83119 32.4027 4.17115C30.792 4.31271 29.5716 4.41713 26.8998 4.41713C24.2279 4.41713 18.7628 4.28947 15.9695 4.41712C13.1762 4.54478 -2.44872 4.8891 1.27874 2.37051Z" fill="#F7F5FF"/>
<path d="M10.6011 10.5907C12.7587 8.57585 25.884 8.44526 32.1769 8.63183C35.5815 8.6902 35.9197 12.0514 33.1208 12.3914C31.9553 12.5329 31.0723 12.6373 29.1391 12.6373C27.2059 12.6373 23.2516 12.5097 21.2306 12.6373C19.2095 12.765 7.90414 13.1093 10.6011 10.5907Z" fill="#F7F5FF"/>
</svg>
