<svg width="28" height="29" viewBox="0 0 28 29" fill="none" xmlns="http://www.w3.org/2000/svg">
<path d="M2.46729 2.66737C6.00059 3.35121 18.92 16.0859 24.938 22.3678C28.224 25.7363 26.1778 28.4436 23.202 25.9486C21.9629 24.9097 21.0262 24.1206 19.1369 22.2314C17.2476 20.3421 13.4735 16.3874 11.408 14.5025C9.34263 12.6176 -1.94934 1.81258 2.46729 2.66737Z" fill="#F7F5FF"/>
<path d="M25.9078 2.75012C25.224 6.28342 12.4893 19.2028 6.20741 25.2208C2.83885 28.5068 0.131606 26.4606 2.62657 23.4849C3.66547 22.2458 4.45455 21.309 6.34383 19.4198C8.23311 17.5305 12.1878 13.7563 14.0727 11.6909C15.9576 9.62546 26.7626 -1.66651 25.9078 2.75012Z" fill="#F7F5FF"/>
</svg>
