<svg width="34.000244" height="33.999996" viewBox="0 0 34.0002 34" fill="none" xmlns="http://www.w3.org/2000/svg" xmlns:xlink="http://www.w3.org/1999/xlink">
	<desc>
			Created with Pixso.
	</desc>
	<defs/>
	<path id="Vector 9" d="M30.49 26.92C22.96 19.07 6.81 3.14 2.39 2.29C-3.13 1.22 10.99 14.73 13.57 17.09C16.15 19.44 20.87 24.39 23.24 26.75C25.6 29.11 26.77 30.1 28.32 31.4C32.04 34.52 34.6 31.14 30.49 26.92Z" fill="#F7F5FF" fill-opacity="1.000000" fill-rule="evenodd"/>
	<path id="Vector 10" d="M7.07 30.49C14.92 22.96 30.85 6.81 31.7 2.39C32.77 -3.13 19.26 10.99 16.9 13.57C14.55 16.15 9.6 20.87 7.24 23.24C4.88 25.6 3.89 26.77 2.59 28.32C-0.53 32.04 2.86 34.6 7.07 30.49Z" fill="#F7F5FF" fill-opacity="1.000000" fill-rule="evenodd"/>
</svg>
