<svg width="204.000000" height="40.000000" viewBox="0 0 204 40" fill="none" xmlns="http://www.w3.org/2000/svg" xmlns:xlink="http://www.w3.org/1999/xlink">
	<desc>
			Created with Pixso.
	</desc>
	<defs>
		<clipPath id="clip408_13">
			<rect id="1656922146+_Logo_WayForPay_SVG 1" rx="0.000000" width="203.000000" height="39.000000" transform="translate(0.500000 0.500000)" fill="white" fill-opacity="0"/>
		</clipPath>
	</defs>
	<rect id="1656922146+_Logo_WayForPay_SVG 1" rx="0.000000" width="203.000000" height="39.000000" transform="translate(0.500000 0.500000)" fill="#FFFFFF" fill-opacity="0"/>
	<g clip-path="url(#clip408_13)">
		<path id="Контур 2231" d="M7.96 37.81L7.96 39.75L7.18 39.75L7.18 34.07L7.97 34.07L7.97 34.56C8.16 34.36 8.38 34.21 8.63 34.09C8.88 33.99 9.15 33.94 9.42 33.94C9.72 33.93 10.03 33.98 10.31 34.09C10.6 34.2 10.85 34.37 11.07 34.58C11.28 34.79 11.45 35.04 11.57 35.32C11.68 35.6 11.74 35.9 11.73 36.19C11.73 36.49 11.67 36.78 11.56 37.05C11.46 37.32 11.3 37.56 11.09 37.77C10.89 37.99 10.65 38.16 10.37 38.27C10.09 38.38 9.78 38.44 9.48 38.43C9.19 38.43 8.91 38.38 8.65 38.28C8.39 38.16 8.15 38 7.95 37.8L7.96 37.81ZM7.95 36.15C7.94 36.35 7.98 36.55 8.05 36.73C8.13 36.92 8.24 37.09 8.38 37.23C8.51 37.38 8.67 37.49 8.85 37.57C9.03 37.65 9.23 37.69 9.43 37.68C9.62 37.68 9.82 37.64 10 37.57C10.19 37.49 10.35 37.38 10.49 37.25C10.63 37.11 10.74 36.95 10.82 36.77C10.89 36.59 10.93 36.39 10.93 36.2C10.93 36 10.9 35.8 10.82 35.61C10.74 35.42 10.63 35.25 10.49 35.11C10.35 34.97 10.18 34.86 10 34.78C9.82 34.71 9.62 34.67 9.42 34.67C9.22 34.67 9.03 34.71 8.86 34.79C8.68 34.87 8.52 34.98 8.39 35.12C8.25 35.25 8.14 35.41 8.06 35.59C7.98 35.77 7.95 35.96 7.95 36.15L7.95 36.15Z" fill="#FFFFFF" fill-opacity="1.000000" fill-rule="nonzero"/>
		<path id="Контур 2232" d="M25.79 38.33L25.79 37.78C25.61 37.98 25.38 38.13 25.13 38.24C24.89 38.35 24.62 38.41 24.34 38.41C24.04 38.41 23.74 38.36 23.45 38.25C23.17 38.14 22.91 37.97 22.7 37.76C22.48 37.55 22.31 37.3 22.2 37.02C22.09 36.74 22.03 36.44 22.04 36.14C22.04 35.85 22.09 35.56 22.21 35.28C22.31 35.02 22.47 34.78 22.67 34.58C22.87 34.36 23.12 34.19 23.39 34.07C23.68 33.96 23.98 33.9 24.29 33.91C24.57 33.91 24.86 33.96 25.12 34.07C25.37 34.18 25.59 34.34 25.78 34.54L25.78 34.02L26.58 34.02L26.58 38.31L25.79 38.33ZM22.85 36.16C22.84 36.36 22.88 36.56 22.95 36.75C23.03 36.94 23.14 37.11 23.29 37.25C23.42 37.4 23.59 37.51 23.78 37.59C23.96 37.66 24.16 37.7 24.36 37.7C24.56 37.7 24.75 37.66 24.92 37.58C25.1 37.5 25.26 37.39 25.39 37.25C25.53 37.12 25.64 36.96 25.72 36.78C25.8 36.6 25.83 36.41 25.83 36.21C25.84 36.01 25.8 35.82 25.72 35.63C25.65 35.45 25.54 35.28 25.39 35.14C25.26 34.99 25.1 34.88 24.92 34.8C24.74 34.72 24.54 34.68 24.34 34.68C24.15 34.68 23.95 34.72 23.77 34.8C23.58 34.87 23.42 34.98 23.28 35.12C23.14 35.26 23.03 35.42 22.96 35.6C22.88 35.78 22.84 35.97 22.85 36.16L22.85 36.16Z" fill="#FFFFFF" fill-opacity="1.000000" fill-rule="nonzero"/>
		<path id="Контур 2233" d="M36.86 34.05L37.7 34.05L38.89 37.24L40.17 34.05L41.02 34.05L38.66 39.72L37.83 39.72L38.44 38.21L36.86 34.05Z" fill="#FFFFFF" fill-opacity="1.000000" fill-rule="nonzero"/>
		<path id="Контур 2234" d="M53.97 36.17C54 35.78 53.92 35.38 53.74 35.03C53.67 34.91 53.56 34.82 53.43 34.75C53.31 34.69 53.16 34.66 53.02 34.67C52.88 34.66 52.73 34.69 52.6 34.75C52.47 34.82 52.36 34.91 52.28 35.03C52.09 35.37 52 35.75 52.03 36.14L52.03 38.34L51.28 38.34L51.28 34.05L51.99 34.05L51.99 34.56C52.12 34.38 52.29 34.23 52.48 34.12C52.69 34.02 52.91 33.97 53.14 33.98C53.42 33.97 53.69 34.03 53.94 34.16C54.17 34.29 54.35 34.49 54.46 34.72C54.58 34.49 54.76 34.29 54.99 34.16C55.25 34.03 55.53 33.97 55.82 33.98C56.04 33.97 56.26 34.01 56.47 34.09C56.67 34.17 56.85 34.3 57.01 34.45C57.32 34.81 57.48 35.27 57.45 35.74L57.45 38.37L56.66 38.37L56.66 35.85C56.68 35.54 56.59 35.24 56.41 34.99C56.34 34.9 56.24 34.82 56.12 34.76C56.01 34.71 55.88 34.68 55.75 34.68C55.61 34.67 55.47 34.7 55.34 34.75C55.21 34.81 55.1 34.9 55.01 35.01C54.84 35.35 54.76 35.73 54.79 36.1L54.79 38.35L54.02 38.35L53.97 36.17Z" fill="#FFFFFF" fill-opacity="1.000000" fill-rule="nonzero"/>
		<path id="Контур 2235" d="M68.74 36.49C68.79 36.83 68.97 37.14 69.23 37.36C69.46 37.55 69.74 37.66 70.04 37.69C70.33 37.72 70.63 37.66 70.89 37.52C71.1 37.39 71.28 37.21 71.4 36.99L72.29 36.99C72.12 37.43 71.82 37.81 71.44 38.09C71.07 38.34 70.63 38.47 70.18 38.46C69.87 38.47 69.57 38.41 69.29 38.3C69.01 38.18 68.76 38.01 68.55 37.79C68.35 37.58 68.19 37.33 68.08 37.06C67.96 36.79 67.9 36.5 67.9 36.21C67.9 35.92 67.95 35.63 68.06 35.36C68.17 35.09 68.33 34.85 68.53 34.64C68.73 34.42 68.98 34.24 69.26 34.11C69.54 33.99 69.85 33.93 70.16 33.94C70.53 33.93 70.9 34.02 71.23 34.2C71.56 34.37 71.84 34.62 72.06 34.93C72.18 35.13 72.27 35.35 72.34 35.58C72.4 35.84 72.43 36.11 72.42 36.38L72.42 36.49L68.74 36.49ZM71.56 35.79C71.48 35.48 71.31 35.19 71.05 34.98C70.8 34.78 70.49 34.68 70.17 34.68C69.85 34.68 69.54 34.78 69.29 34.98C69.02 35.18 68.84 35.46 68.76 35.78L71.56 35.79Z" fill="#FFFFFF" fill-opacity="1.000000" fill-rule="nonzero"/>
		<path id="Контур 2236" d="M83.7 38.34L82.92 38.34L82.92 34.05L83.67 34.05L83.67 34.56C83.82 34.38 84.01 34.24 84.22 34.14C84.42 34.05 84.65 34 84.88 34C85.12 33.99 85.36 34.02 85.59 34.11C85.82 34.19 86.02 34.33 86.19 34.5C86.53 34.89 86.69 35.4 86.66 35.91L86.66 38.36L85.88 38.36L85.88 36.09C85.91 35.73 85.82 35.37 85.62 35.07C85.52 34.96 85.4 34.87 85.26 34.81C85.12 34.76 84.97 34.73 84.82 34.74C84.66 34.73 84.49 34.76 84.34 34.83C84.19 34.9 84.06 35 83.97 35.13C83.76 35.53 83.67 35.97 83.7 36.42L83.7 38.34Z" fill="#FFFFFF" fill-opacity="1.000000" fill-rule="nonzero"/>
		<path id="Контур 2237" d="M97.66 38.33L97.66 34.74L97.04 34.74L97.04 34.05L97.66 34.05L97.66 32.65L98.45 32.65L98.45 34.05L99.07 34.05L99.07 34.74L98.45 34.74L98.45 38.33L97.66 38.33Z" fill="#FFFFFF" fill-opacity="1.000000" fill-rule="nonzero"/>
		<path id="Контур 2238" d="M122.16 36.49C122.19 36.72 122.28 36.93 122.42 37.12C122.56 37.3 122.75 37.45 122.96 37.55C123.17 37.65 123.4 37.7 123.64 37.7C123.87 37.69 124.1 37.63 124.31 37.52C124.52 37.39 124.7 37.21 124.82 36.99L125.71 36.99C125.54 37.43 125.24 37.81 124.86 38.09C124.49 38.34 124.05 38.47 123.59 38.46C123.29 38.47 122.99 38.41 122.71 38.3C122.43 38.18 122.18 38.01 121.98 37.79C121.77 37.58 121.61 37.33 121.5 37.06C121.28 36.51 121.28 35.9 121.5 35.36C121.6 35.09 121.76 34.85 121.96 34.64C122.3 34.28 122.75 34.05 123.24 33.97C123.73 33.89 124.23 33.97 124.67 34.19C124.94 34.34 125.18 34.53 125.37 34.77C125.56 35 125.69 35.28 125.77 35.57C125.83 35.83 125.86 36.1 125.86 36.37L125.86 36.49L122.16 36.49ZM124.98 35.79C124.91 35.47 124.73 35.19 124.47 34.98C124.22 34.78 123.92 34.68 123.6 34.68C123.27 34.68 122.96 34.79 122.7 34.99C122.44 35.19 122.26 35.48 122.18 35.79L124.98 35.79Z" fill="#FFFFFF" fill-opacity="1.000000" fill-rule="nonzero"/>
		<path id="Контур 2239" d="M137.11 38.34L136.32 38.34L136.32 34.05L137.08 34.05L137.08 34.56C137.22 34.38 137.41 34.23 137.62 34.14C137.83 34.04 138.07 33.99 138.3 34C138.54 33.99 138.79 34.02 139.01 34.11C139.24 34.2 139.45 34.33 139.62 34.5C139.95 34.9 140.11 35.4 140.08 35.91L140.08 38.36L139.3 38.36L139.3 36.09C139.33 35.73 139.24 35.37 139.04 35.07C138.95 34.96 138.82 34.87 138.69 34.81C138.55 34.76 138.4 34.73 138.25 34.74C138.08 34.73 137.92 34.76 137.77 34.83C137.62 34.89 137.49 35 137.39 35.13C137.18 35.53 137.09 35.97 137.12 36.42L137.11 38.34Z" fill="#FFFFFF" fill-opacity="1.000000" fill-rule="nonzero"/>
		<path id="Контур 2240" d="M150.87 38.68L151.71 38.68C151.82 38.87 151.99 39.03 152.19 39.13C152.39 39.24 152.62 39.3 152.85 39.3C153.04 39.3 153.24 39.27 153.43 39.2C153.61 39.13 153.78 39.03 153.92 38.9C154.06 38.76 154.16 38.6 154.23 38.42C154.3 38.24 154.33 38.05 154.32 37.86L154.32 37.78C154.14 37.98 153.91 38.14 153.66 38.24C153.41 38.35 153.14 38.41 152.87 38.41C152.56 38.41 152.26 38.36 151.98 38.25C151.7 38.14 151.44 37.97 151.22 37.76C151.01 37.55 150.84 37.3 150.73 37.02C150.61 36.74 150.56 36.44 150.57 36.14C150.56 35.85 150.62 35.56 150.73 35.28C150.83 35.02 150.99 34.78 151.2 34.58C151.4 34.36 151.64 34.19 151.92 34.07C152.2 33.96 152.51 33.9 152.81 33.91C153.1 33.91 153.38 33.96 153.64 34.07C153.91 34.17 154.14 34.34 154.34 34.54L154.34 34.02L155.13 34.02L155.13 37.6C155.17 38.24 154.95 38.86 154.53 39.35C154.33 39.56 154.07 39.74 153.79 39.85C153.51 39.96 153.2 40.01 152.9 39.99C152.44 40.01 152 39.88 151.61 39.64C151.25 39.41 150.99 39.07 150.86 38.66L150.87 38.68ZM151.38 36.15C151.38 36.35 151.42 36.55 151.49 36.74C151.57 36.93 151.68 37.1 151.82 37.24C151.96 37.38 152.13 37.5 152.31 37.57C152.5 37.65 152.7 37.69 152.9 37.68C153.09 37.68 153.28 37.64 153.46 37.57C153.64 37.49 153.8 37.38 153.93 37.24C154.07 37.1 154.18 36.94 154.26 36.76C154.33 36.59 154.37 36.39 154.37 36.2C154.37 36 154.34 35.8 154.26 35.62C154.19 35.43 154.08 35.27 153.94 35.12C153.8 34.98 153.64 34.87 153.46 34.79C153.28 34.71 153.08 34.67 152.89 34.67C152.69 34.67 152.49 34.71 152.31 34.78C152.13 34.86 151.96 34.97 151.82 35.1C151.68 35.24 151.57 35.4 151.49 35.58C151.42 35.76 151.38 35.96 151.38 36.15Z" fill="#FFFFFF" fill-opacity="1.000000" fill-rule="nonzero"/>
		<path id="Контур 2241" d="M166.64 33.54L165.85 33.54L165.85 32.65L166.64 32.65L166.64 33.54ZM165.86 34.05L166.64 34.05L166.64 38.33L165.86 38.33L165.86 34.05Z" fill="#FFFFFF" fill-opacity="1.000000" fill-rule="nonzero"/>
		<path id="Контур 2242" d="M178.16 38.34L177.37 38.34L177.37 34.05L178.13 34.05L178.13 34.56C178.28 34.38 178.46 34.24 178.67 34.14C178.88 34.05 179.1 34 179.33 34C179.57 33.99 179.82 34.02 180.05 34.11C180.27 34.19 180.48 34.33 180.65 34.5C180.98 34.89 181.15 35.4 181.11 35.91L181.11 38.36L180.32 38.36L180.32 36.09C180.35 35.73 180.26 35.37 180.06 35.07C179.97 34.96 179.84 34.87 179.7 34.81C179.56 34.76 179.41 34.73 179.26 34.74C179.09 34.73 178.93 34.76 178.78 34.83C178.63 34.89 178.5 35 178.41 35.13C178.2 35.53 178.11 35.97 178.14 36.42L178.16 38.34Z" fill="#FFFFFF" fill-opacity="1.000000" fill-rule="nonzero"/>
		<path id="Контур 2243" d="M192.44 36.49C192.49 36.83 192.67 37.14 192.94 37.36C193.16 37.55 193.44 37.66 193.74 37.69C194.03 37.72 194.33 37.66 194.58 37.52C194.8 37.39 194.98 37.21 195.1 36.99L196.02 36.99C195.85 37.43 195.55 37.81 195.17 38.09C194.8 38.34 194.36 38.47 193.91 38.46C193.6 38.47 193.3 38.41 193.02 38.3C192.74 38.18 192.49 38.01 192.28 37.79C192.08 37.58 191.91 37.33 191.8 37.06C191.58 36.51 191.58 35.9 191.8 35.36C191.91 35.09 192.07 34.85 192.26 34.64C192.47 34.42 192.72 34.24 193 34.11C193.29 33.99 193.59 33.93 193.9 33.94C194.27 33.93 194.64 34.02 194.97 34.19C195.3 34.37 195.58 34.62 195.79 34.93C195.92 35.13 196.02 35.35 196.08 35.58C196.14 35.84 196.17 36.11 196.17 36.38L196.17 36.49L192.44 36.49ZM195.26 35.79C195.18 35.48 195.01 35.19 194.76 34.98C194.5 34.78 194.19 34.68 193.87 34.68C193.55 34.68 193.24 34.78 192.99 34.98C192.73 35.18 192.54 35.46 192.46 35.78L195.26 35.79Z" fill="#FFFFFF" fill-opacity="1.000000" fill-rule="nonzero"/>
		<path id="Контур 2244" d="M149.92 0.09L143.33 0.09L143.33 25.07L146.3 25.07L146.3 15.25L149.31 15.25C152.59 15.25 155.11 14.57 156.88 13.2C158.64 11.84 159.52 9.91 159.51 7.4C159.51 2.54 156.32 0.11 149.95 0.12L149.92 0.09ZM154.67 11.53C153.5 12.36 151.59 12.78 148.97 12.78L146.29 12.78L146.29 2.61L149.59 2.61C151.93 2.61 153.66 3.01 154.76 3.82C155.32 4.25 155.77 4.82 156.06 5.46C156.35 6.1 156.47 6.81 156.42 7.51C156.42 9.34 155.83 10.67 154.65 11.51L154.67 11.53ZM171.42 0L161.33 25.07L164.36 25.07L167.47 17.14L177.71 17.14L180.89 25.09L183.96 25.09L173.92 0L171.42 0ZM168.52 14.51L171.53 6.77C171.97 5.59 172.33 4.39 172.63 3.17C172.96 4.39 173.36 5.59 173.82 6.77L176.79 14.51L168.52 14.51ZM200.78 0.09L193.97 12.58L187.21 0.09L183.96 0.09L192.47 15.52L192.47 25.07L195.47 25.07L195.47 15.4L204 0.1L200.78 0.09ZM24.98 15.49C24.45 17.43 24.03 19.4 23.73 21.39C23.39 19.37 22.92 17.38 22.31 15.41L17.51 0.09L14.36 0.09L9.79 15.28C9.17 17.28 8.7 19.32 8.39 21.39C8.09 19.41 7.68 17.45 7.17 15.52L3.14 0.09L0 0.09L6.79 25.07L9.72 25.07L14.71 8.45C15.23 6.83 15.64 5.18 15.93 3.51C16.05 4.2 16.21 4.87 16.41 5.54C16.71 6.67 16.99 7.61 17.23 8.35L22.38 25.07L25.32 25.07L32.14 0.09L29 0.09L24.98 15.49ZM42.73 0.01L32.63 25.08L35.64 25.08L38.78 17.14L49.01 17.14L52.19 25.09L55.27 25.09L45.23 0.01L42.73 0.01ZM39.83 14.52L42.83 6.79C43.27 5.61 43.64 4.4 43.94 3.18C44.34 4.61 44.73 5.81 45.12 6.79L48.09 14.52L39.83 14.52ZM65.28 12.59L58.52 0.09L55.27 0.09L63.77 15.52L63.77 25.07L66.76 25.07L66.76 15.4L75.33 0.09L72.12 0.09L65.28 12.59Z" fill="#FFFFFF" fill-opacity="1.000000" fill-rule="nonzero"/>
		<mask id="mask408_32" mask-type="alpha" maskUnits="userSpaceOnUse" x="80.052979" y="0.010895" width="59.101807" height="25.226929">
			<path id="Контур 2245" d="M105.51 21.31L105.51 19.11C105.01 18.89 104.61 18.5 104.36 18.02C104.12 17.54 104.05 16.99 104.16 16.47C104.28 15.94 104.58 15.47 105.01 15.14C105.43 14.8 105.97 14.62 106.52 14.62C107.07 14.62 107.6 14.8 108.03 15.14C108.45 15.47 108.75 15.94 108.87 16.47C108.99 16.99 108.92 17.54 108.67 18.02C108.43 18.5 108.02 18.89 107.52 19.11L107.52 21.31C107.53 21.45 107.52 21.58 107.47 21.71C107.42 21.84 107.35 21.96 107.26 22.06C107.16 22.16 107.05 22.24 106.92 22.29C106.79 22.35 106.66 22.38 106.52 22.38C106.38 22.38 106.24 22.35 106.11 22.29C105.98 22.24 105.87 22.16 105.77 22.06C105.68 21.96 105.61 21.84 105.56 21.71C105.52 21.58 105.5 21.45 105.51 21.31ZM113.33 12.63L113.33 12.73L99.73 12.73L99.73 12.63L97.24 12.63L97.24 12.73C97.24 16.62 98.06 19.68 99.69 21.9C100.45 22.97 101.47 23.83 102.66 24.41C103.85 24.99 105.17 25.27 106.49 25.22C107.83 25.29 109.17 25.02 110.38 24.45C111.59 23.88 112.63 23.03 113.42 21.96C115.04 19.78 115.85 16.71 115.85 12.76L115.85 12.63L113.33 12.63ZM80.05 0.08L80.05 25.05L83.02 25.05L83.02 14.38L93.6 14.38L93.6 11.8L83.02 11.8L83.02 2.66L94.28 2.66L94.28 0.09L80.05 0.08ZM124.13 2.63L127.99 2.63C130.19 2.63 131.79 3 132.79 3.72C133.78 4.45 134.28 5.64 134.28 7.3C134.33 7.97 134.23 8.66 133.97 9.29C133.72 9.92 133.32 10.49 132.81 10.96C131.84 11.77 130.3 12.18 128.2 12.18L124.13 12.18L124.13 2.63ZM121.17 0.09L121.17 25.06L124.13 25.06L124.13 14.67L129.46 14.67L135.64 25.06L139.15 25.06L132.22 13.83C135.64 12.67 137.35 10.44 137.36 7.14C137.36 4.78 136.6 3.02 135.11 1.85C133.61 0.67 131.3 0.09 128.16 0.09L121.17 0.09ZM99.66 3.31C98.04 5.48 97.23 7.82 97.23 11.81L97.23 11.94L99.73 11.94L99.73 11.84C99.73 8.62 100.31 6.82 101.48 5.12C102.03 4.29 102.79 3.62 103.68 3.17C104.58 2.71 105.58 2.5 106.59 2.54C107.59 2.49 108.58 2.7 109.47 3.14C110.36 3.59 111.11 4.26 111.65 5.08C112.79 6.77 113.36 8.55 113.36 11.82L113.36 11.91L115.86 11.91L115.86 11.82C115.86 7.95 115.04 5.55 113.41 3.34C112.65 2.27 111.63 1.41 110.44 0.82C109.25 0.24 107.93 -0.04 106.6 0.01C105.26 -0.05 103.92 0.22 102.72 0.79C101.51 1.36 100.46 2.22 99.68 3.28L99.66 3.31Z" fill="#000000" fill-opacity="1.000000" fill-rule="nonzero"/>
		</mask>
		<g mask="url(#mask408_32)">
			<path id="Прямоугольник 1513" d="M80.05 0.04L139.13 0.04L139.13 25.23L80.05 25.23L80.05 0.04Z" fill="#FFFFFF" fill-opacity="1.000000" fill-rule="evenodd"/>
		</g>
	</g>
</svg>
