<svg width="163.000000" height="21.000000" viewBox="0 0 163 21" fill="none" xmlns="http://www.w3.org/2000/svg" xmlns:xlink="http://www.w3.org/1999/xlink">
	<desc>
			Created with Pixso.
	</desc>
	<defs>
		<clipPath id="clip408_36">
			<rect id="logo 1" rx="0.000000" width="162.000000" height="20.000000" transform="translate(0.500000 0.500000)" fill="white" fill-opacity="0"/>
		</clipPath>
	</defs>
	<rect id="logo 1" rx="0.000000" width="162.000000" height="20.000000" transform="translate(0.500000 0.500000)" fill="#FFFFFF" fill-opacity="0"/>
	<g clip-path="url(#clip408_36)">
		<path id="Vector" d="M12.38 13.81L11.87 13.97L11.87 1.05L13.71 1.05L13.71 16L11.87 16L2.17 3.25L2.67 3.09L2.67 16L0.83 16L0.83 1.05L2.67 1.05L12.38 13.81ZM24.66 16.23C23.29 16.23 22.05 15.91 20.93 15.28C19.83 14.64 18.95 13.74 18.29 12.59C17.63 11.44 17.3 10.08 17.3 8.52C17.3 6.96 17.63 5.6 18.29 4.45C18.95 3.28 19.83 2.39 20.93 1.76C22.05 1.13 23.29 0.82 24.66 0.82C26.02 0.82 27.26 1.13 28.36 1.76C29.48 2.39 30.37 3.28 31.03 4.45C31.69 5.6 32.02 6.96 32.02 8.52C32.02 10.08 31.69 11.44 31.03 12.59C30.4 13.71 29.48 14.64 28.36 15.28C27.26 15.91 26.02 16.23 24.66 16.23ZM24.66 14.5C25.7 14.5 26.64 14.28 27.46 13.83C28.29 13.37 28.95 12.7 29.44 11.81C29.93 10.92 30.18 9.82 30.18 8.52C30.18 7.22 29.93 6.13 29.44 5.25C28.95 4.36 28.29 3.69 27.46 3.23C26.64 2.77 25.7 2.54 24.66 2.54C23.63 2.54 22.7 2.77 21.85 3.23C21.02 3.69 20.36 4.37 19.87 5.25C19.38 6.13 19.14 7.22 19.14 8.52C19.14 9.82 19.38 10.92 19.87 11.81C20.36 12.7 21.02 13.37 21.85 13.83C22.7 14.28 23.63 14.5 24.66 14.5ZM38.92 16L33.54 1.05L35.52 1.05L40.14 14.02L39.59 14.02L44.02 1.05L46 1.05L50.44 14.02L49.89 14.02L54.51 1.05L56.45 1.05L51.11 16L49.18 16L44.76 2.56L45.27 2.56L40.85 16L38.92 16Z" fill="#64ACFF" fill-opacity="1.000000" fill-rule="nonzero"/>
		<path id="Vector" d="M60.78 10.71L60.78 8.98L65.47 8.98C66.39 8.98 67.13 8.7 67.7 8.13C68.28 7.55 68.57 6.79 68.57 5.87C68.57 4.92 68.28 4.17 67.7 3.62C67.13 3.05 66.39 2.77 65.47 2.77L61.14 2.77L61.14 16L59.3 16L59.3 1.04L65.47 1.04C66.16 1.04 66.8 1.15 67.4 1.37C68 1.58 68.52 1.9 68.96 2.31C69.42 2.72 69.78 3.23 70.02 3.83C70.28 4.43 70.41 5.11 70.41 5.87C70.41 6.64 70.28 7.32 70.02 7.92C69.79 8.5 69.43 9.02 68.96 9.44C68.51 9.86 67.98 10.18 67.4 10.38C66.78 10.6 66.12 10.71 65.47 10.71L60.78 10.71ZM77.45 16.23C76.56 16.23 75.68 15.96 74.94 15.47C74.19 14.95 73.59 14.24 73.13 13.35C72.68 12.45 72.46 11.42 72.46 10.27C72.46 9.12 72.69 8.09 73.15 7.19C73.61 6.28 74.23 5.57 75.01 5.05C75.8 4.53 76.73 4.25 77.68 4.26C78.75 4.26 79.57 4.54 80.12 5.09C80.69 5.63 81.07 6.35 81.27 7.25C81.48 8.16 81.59 9.16 81.59 10.27C81.59 10.85 81.53 11.49 81.41 12.18C81.28 12.86 81.07 13.51 80.76 14.13C80.48 14.73 80.05 15.26 79.52 15.65C78.98 16.03 78.29 16.23 77.45 16.23ZM77.91 14.48C78.69 14.48 79.34 14.29 79.84 13.9C80.36 13.52 80.75 13.01 80.99 12.38C81.24 11.74 81.36 11.03 81.36 10.27C81.36 9.42 81.23 8.69 80.97 8.06C80.72 7.42 80.34 6.92 79.82 6.56C79.31 6.2 78.68 6.01 77.91 6.01C76.76 6.01 75.87 6.42 75.24 7.23C74.61 8.03 74.3 9.04 74.3 10.27C74.3 11.08 74.45 11.81 74.76 12.45C75.06 13.05 75.5 13.57 76.05 13.95C76.6 14.3 77.25 14.49 77.91 14.48ZM81.36 4.5L83.2 4.5L83.2 16L81.52 16L81.48 15.58C81.46 15.26 81.43 14.94 81.41 14.62C81.38 14.31 81.36 14 81.36 13.7L81.36 4.5ZM85.76 4.5L87.74 4.5L91.86 15.54L90.25 16L85.76 4.5ZM96.46 4.5L90.04 20.6L88.04 20.6L90.82 14.39L94.5 4.5L96.46 4.5ZM99.01 4.5L100.85 4.5L100.85 16L99.01 16L99.01 4.5ZM104.81 4.26C105.42 4.26 105.97 4.36 106.46 4.54C106.95 4.72 107.37 4.99 107.7 5.35C108.04 5.7 108.3 6.13 108.49 6.63C108.67 7.12 108.76 7.68 108.76 8.31L108.76 16L106.92 16L106.92 8.77C106.92 7.88 106.72 7.22 106.3 6.77C105.89 6.33 105.27 6.1 104.44 6.1C103.81 6.1 103.23 6.27 102.69 6.59C102.15 6.92 101.69 7.38 101.36 7.92C101.02 8.47 100.81 9.12 100.74 9.85L100.71 8.52C100.79 7.88 100.94 7.29 101.17 6.77C101.4 6.28 101.7 5.83 102.07 5.44C102.42 5.07 102.84 4.77 103.31 4.56C103.79 4.36 104.29 4.26 104.81 4.26ZM112.53 4.26C113.15 4.26 113.7 4.36 114.19 4.54C114.68 4.72 115.1 4.99 115.43 5.35C115.77 5.7 116.03 6.13 116.21 6.63C116.4 7.12 116.49 7.68 116.49 8.31L116.49 16L114.65 16L114.65 8.77C114.65 7.88 114.44 7.22 114.03 6.77C113.62 6.33 112.99 6.1 112.17 6.1C111.54 6.1 110.96 6.27 110.42 6.59C109.87 6.92 109.42 7.38 109.08 7.92C108.75 8.47 108.54 9.12 108.46 9.85L108.44 8.52C108.52 7.88 108.67 7.29 108.9 6.77C109.12 6.28 109.43 5.83 109.8 5.44C110.15 5.07 110.57 4.77 111.04 4.56C111.51 4.36 112.01 4.26 112.53 4.26ZM128.21 12.29L129.94 12.29C129.83 13.02 129.54 13.72 129.11 14.32C128.68 14.91 128.11 15.39 127.46 15.72C126.78 16.06 126 16.23 125.11 16.23C124.04 16.23 123.07 15.97 122.21 15.47C121.36 14.95 120.65 14.22 120.16 13.35C119.67 12.45 119.43 11.42 119.43 10.27C119.43 9.12 119.67 8.09 120.14 7.19C120.61 6.31 121.3 5.57 122.14 5.05C122.99 4.53 123.94 4.26 124.99 4.26C126.11 4.26 127.06 4.52 127.82 5.02C128.61 5.51 129.18 6.24 129.55 7.21C129.93 8.16 130.09 9.33 130.01 10.73L121.27 10.73C121.34 11.48 121.55 12.14 121.89 12.71C122.21 13.26 122.67 13.72 123.22 14.04C123.78 14.35 124.4 14.5 125.11 14.5C125.89 14.5 126.55 14.3 127.09 13.9C127.64 13.49 128.02 12.95 128.21 12.29ZM125.06 5.99C124.11 5.99 123.32 6.27 122.67 6.82C122.03 7.37 121.6 8.12 121.38 9.07L128.12 9.07C128.06 8.06 127.73 7.29 127.13 6.77C126.57 6.26 125.83 5.98 125.06 5.99ZM132.98 4.5L134.82 4.5L134.82 16L132.98 16L132.98 4.5ZM138.78 4.26C139.39 4.26 139.94 4.36 140.43 4.54C140.92 4.72 141.34 4.99 141.67 5.35C142.01 5.7 142.27 6.13 142.46 6.63C142.64 7.12 142.73 7.68 142.73 8.31L142.73 16L140.89 16L140.89 8.77C140.89 7.88 140.69 7.22 140.27 6.77C139.86 6.33 139.24 6.1 138.41 6.1C137.78 6.1 137.2 6.27 136.66 6.59C136.12 6.92 135.66 7.38 135.33 7.92C134.99 8.47 134.78 9.12 134.71 9.85L134.68 8.52C134.76 7.88 134.91 7.29 135.14 6.77C135.39 6.25 135.69 5.81 136.04 5.44C136.39 5.07 136.81 4.77 137.28 4.56C137.76 4.36 138.25 4.26 138.78 4.26ZM145.51 4.5L152.27 4.5L152.27 6.22L145.51 6.22L145.51 4.5ZM147.97 1.5L149.81 1.5L149.81 16L147.97 16L147.97 1.5ZM154.5 12.29L156.2 12.29C156.24 12.95 156.49 13.49 156.93 13.9C157.39 14.32 158.05 14.52 158.91 14.52C159.43 14.52 159.84 14.45 160.13 14.32C160.44 14.18 160.66 13.99 160.8 13.76C160.94 13.52 161 13.25 161 12.96C161 12.61 160.91 12.33 160.73 12.13C160.54 11.9 160.29 11.72 160.02 11.6C159.69 11.45 159.35 11.32 159 11.21C158.54 11.04 158.08 10.86 157.62 10.68C157.16 10.48 156.73 10.25 156.31 9.99C155.93 9.73 155.6 9.39 155.35 9C155.1 8.6 154.98 8.13 154.98 7.58C154.98 7.12 155.07 6.69 155.25 6.29C155.43 5.88 155.7 5.52 156.04 5.23C156.39 4.92 156.81 4.68 157.25 4.52C157.76 4.34 158.29 4.26 158.82 4.26C159.59 4.26 160.23 4.42 160.75 4.72C161.29 5.03 161.69 5.47 161.97 6.04C162.26 6.59 162.41 7.23 162.43 7.97L160.84 7.97C160.74 7.28 160.51 6.78 160.18 6.47C159.85 6.15 159.39 5.99 158.77 5.99C158.14 5.99 157.66 6.13 157.32 6.4C156.99 6.68 156.82 7.05 156.82 7.51C156.82 7.84 156.94 8.13 157.19 8.36C157.43 8.57 157.75 8.77 158.13 8.96C158.53 9.13 158.95 9.3 159.39 9.49C159.84 9.67 160.27 9.85 160.68 10.04C161.1 10.22 161.46 10.44 161.79 10.68C162.11 10.93 162.36 11.23 162.55 11.6C162.74 11.96 162.84 12.4 162.84 12.94C162.84 13.58 162.69 14.16 162.38 14.66C162.09 15.15 161.66 15.54 161.07 15.81C160.5 16.09 159.81 16.23 158.98 16.23C158.23 16.23 157.58 16.13 157.05 15.95C156.57 15.78 156.13 15.52 155.74 15.19C155.41 14.9 155.13 14.56 154.91 14.18C154.74 13.85 154.61 13.5 154.54 13.14C154.48 12.86 154.47 12.58 154.5 12.29Z" fill="#FEFEFE" fill-opacity="1.000000" fill-rule="nonzero"/>
	</g>
</svg>
