<svg width="35" height="35" viewBox="0 0 35 35" fill="none" xmlns="http://www.w3.org/2000/svg">
<rect width="35" height="35" rx="5" fill="#3724B9"/>
<path d="M20.3419 15.6576C21.6354 16.9512 21.6354 19.0484 20.3419 20.3419C19.0484 21.6354 16.9512 21.6354 15.6576 20.3419C14.3641 19.0484 14.3641 16.9512 15.6576 15.6576C16.9512 14.3641 19.0484 14.3641 20.3419 15.6576Z" fill="white"/>
<path fill-rule="evenodd" clip-rule="evenodd" d="M13.625 8H22.375C25.4768 8 28 10.5232 28 13.625V22.375C28 25.4768 25.4768 28 22.375 28H13.625C10.5232 28 8 25.4768 8 22.375V13.625C8 10.5232 10.5232 8 13.625 8ZM13 18C13 20.7576 15.243 23 18 23C20.757 23 23 20.7576 23 18C23 15.2424 20.757 13 18 13C15.243 13 13 15.2424 13 18ZM24.7526 12.9361C25.2577 12.431 25.2577 11.612 24.7526 11.1069C24.2475 10.6017 23.4285 10.6017 22.9234 11.1069C22.4183 11.612 22.4183 12.431 22.9234 12.9361C23.4285 13.4412 24.2475 13.4412 24.7526 12.9361Z" fill="white"/>
</svg>
