<svg width="20.000000" height="20.000000" viewBox="0 0 20 20" fill="none" xmlns="http://www.w3.org/2000/svg" xmlns:xlink="http://www.w3.org/1999/xlink">
	<desc>
			Created with Pixso.
	</desc>
	<defs/>
	<path id="Vector" d="M12.34 7.65C13.63 8.95 13.63 11.04 12.34 12.34C11.04 13.63 8.95 13.63 7.65 12.34C6.36 11.04 6.36 8.95 7.65 7.65C8.95 6.36 11.04 6.36 12.34 7.65Z" fill="#FFFFFF" fill-opacity="1.000000" fill-rule="nonzero"/>
	<path id="Exclude" d="M5.625 0L14.375 0C17.4768 0 20 2.52295 20 5.625L20 14.375C20 17.4771 17.4768 20 14.375 20L5.625 20C2.52319 20 0 17.4771 0 14.375L0 5.625C0 2.52295 2.52319 0 5.625 0ZM16.7526 3.10693C17.2577 3.61182 17.2577 4.43115 16.7526 4.93604C16.2474 5.44141 15.4285 5.44141 14.9233 4.93604C14.4183 4.43115 14.4183 3.61182 14.9233 3.10693C15.4285 2.60156 16.2474 2.60156 16.7526 3.10693ZM5 10C5 12.7573 7.24304 15 10 15C12.757 15 15 12.7573 15 10C15 7.24268 12.757 5 10 5C7.24304 5 5 7.24268 5 10Z" clip-rule="evenodd" fill="#FFFFFF" fill-opacity="1.000000" fill-rule="evenodd"/>
</svg>
