<svg width="38.458374" height="38.458496" viewBox="0 0 38.4584 38.4585" fill="none" xmlns="http://www.w3.org/2000/svg" xmlns:xlink="http://www.w3.org/1999/xlink">
	<desc>
			Created with Pixso.
	</desc>
	<defs/>
	<path id="Vector" d="M34.72 37.8C34.73 38.16 34.45 38.45 34.1 38.45L31.25 38.45C30.84 38.45 30.53 38.06 30.64 37.67C30.93 36.67 31.32 33.91 31.14 31.5C31.86 31.75 32.77 31.97 33.91 32.1C34.23 33.58 34.64 35.79 34.72 37.8Z" fill="#3724B9" fill-opacity="1.000000" fill-rule="nonzero"/>
	<path id="Vector" d="M32.61 34.45C32.58 34.45 32.55 34.45 32.53 34.45C31.76 34.41 31.18 33.75 31.19 32.98C31.19 32.48 31.18 31.99 31.14 31.5C31.86 31.75 32.77 31.97 33.91 32.1C33.95 32.3 33.99 32.5 34.04 32.72C34.22 33.62 33.53 34.49 32.61 34.45Z" fill="#1B1353" fill-opacity="1.000000" fill-rule="nonzero"/>
	<path id="Vector" d="M14.3 14.16C16.58 14.35 18.99 14.62 21.46 14.96C21.91 15.02 22.36 15.09 22.82 15.16C23.76 17.54 24.57 20.24 25.24 22.95C26.28 27.14 27 31.32 27.4 34.22C27.71 36.46 25.97 38.45 23.72 38.45L15.66 38.45C13.34 38.45 11.59 36.36 12 34.08C12.55 31.01 13.25 26.66 13.73 22.35C14.04 19.47 14.26 16.61 14.26 14.16C14.27 14.16 14.29 14.16 14.3 14.16Z" fill="#3724B9" fill-opacity="1.000000" fill-rule="nonzero"/>
	<path id="Vector" d="M23.49 16.96C22.47 17.28 21.56 17.9 21.09 18.6C19.84 20.46 19.84 13.64 16.74 17.36C15.83 18.47 14.91 18.81 14.07 18.74C14.19 17.13 14.26 15.58 14.26 14.16C14.27 14.16 14.29 14.16 14.3 14.16C16.58 14.35 18.99 14.62 21.46 14.96C21.91 15.02 22.36 15.09 22.82 15.16C23.05 15.74 23.27 16.35 23.49 16.96Z" fill="#1B1353" fill-opacity="1.000000" fill-rule="nonzero"/>
	<path id="Vector" d="M14.26 13.64C14.26 13.82 14.27 13.99 14.3 14.16C14.29 14.16 14.27 14.16 14.26 14.16C13.64 14.11 13.04 14.06 12.44 14.01C11.77 13.96 11.11 13.93 10.47 13.89C9.61 13.83 8.78 13.8 8 13.76C6.89 13.72 5.86 13.68 4.94 13.66C1.89 13.59 0 13.64 0 13.64C0 13.64 0.1 11.35 1.42 8.64C2.09 9.06 2.87 9.3 3.72 9.3C6.12 9.3 8.06 7.36 8.06 4.96C8.06 4.02 7.76 3.15 7.26 2.45C9.83 0.99 13.29 0 17.98 0C20.06 0 21.94 0.27 23.63 0.76C23.19 1.43 22.95 2.23 22.95 3.1C22.95 5.5 24.89 7.44 27.29 7.44C28.96 7.44 30.41 6.5 31.14 5.11C32.06 5.98 32.86 6.92 33.57 7.89C32.42 8.52 31.63 9.75 31.63 11.16C31.63 13.21 33.3 14.88 35.35 14.88C35.98 14.88 36.57 14.73 37.09 14.45C38.12 17.2 38.45 19.22 38.45 19.22C37.26 18.73 36.02 18.28 34.73 17.87C33.92 17.61 33.09 17.36 32.25 17.13C31.25 16.85 30.23 16.6 29.2 16.36C27.96 16.09 26.72 15.83 25.46 15.61C24.58 15.45 23.7 15.3 22.82 15.16C22.36 15.09 21.91 15.02 21.46 14.96C21.62 14.55 21.71 14.11 21.71 13.64C21.71 11.59 20.04 9.92 17.98 9.92C15.93 9.92 14.26 11.59 14.26 13.64Z" fill="#3724B9" fill-opacity="1.000000" fill-rule="nonzero"/>
	<path id="Vector" d="M38.45 19.22C37.26 18.73 36.02 18.27 34.73 17.87C33.92 17.6 33.09 17.36 32.25 17.13C31.25 16.85 30.23 16.6 29.2 16.36C27.96 16.09 26.72 15.83 25.46 15.61C24.58 15.45 23.7 15.3 22.82 15.16C22.36 15.09 21.91 15.02 21.46 14.96C21.62 14.55 21.71 14.11 21.71 13.64C21.71 12.98 21.53 12.35 21.22 11.81C22.34 11.85 23.34 11.84 24.19 11.78C29.56 11.4 32.09 8.39 31.16 5.13C32.07 6 32.87 6.93 33.57 7.88C32.42 8.52 31.63 9.75 31.63 11.16C31.63 13.21 33.3 14.88 35.35 14.88C35.98 14.88 36.57 14.73 37.09 14.45C38.12 17.2 38.45 19.22 38.45 19.22ZM14.26 13.64C14.26 13.81 14.27 13.99 14.3 14.16C14.29 14.16 14.27 14.16 14.26 14.16C13.64 14.11 13.04 14.06 12.44 14.01C11.77 13.96 11.11 13.93 10.47 13.89C9.61 13.83 8.78 13.8 8 13.76C6.89 13.72 5.86 13.68 4.94 13.66C1.89 13.59 0 13.64 0 13.64C0 13.64 0.08 11.69 1.13 9.27C5.43 10.02 10.53 10.83 15.07 11.33C14.56 11.96 14.26 12.77 14.26 13.64Z" fill="#221389" fill-opacity="1.000000" fill-rule="nonzero"/>
	<path id="Vector" d="M36.59 32.25C35.58 32.25 34.69 32.19 33.91 32.1C32.77 31.97 31.86 31.75 31.14 31.5C29.03 30.77 28.53 29.77 28.53 29.77C36.59 19.84 36.59 32.25 36.59 32.25Z" fill="#3724B9" fill-opacity="1.000000" fill-rule="nonzero"/>
	<path id="Vector" d="M36.59 32.25C35.58 32.25 34.69 32.19 33.91 32.1C32.77 31.96 31.86 31.75 31.14 31.5C29.03 30.77 28.53 29.77 28.53 29.77C29.17 28.98 29.76 28.33 30.3 27.81C30.69 28.67 31.31 29.46 32.25 29.15C33.8 28.63 34.49 31.13 36.47 30.54C36.59 31.51 36.59 32.25 36.59 32.25Z" fill="#221389" fill-opacity="1.000000" fill-rule="nonzero"/>
	<path id="Vector" d="M10.47 13.89C9.61 13.83 8.78 13.8 8 13.76C6.89 13.72 5.86 13.68 4.94 13.66C1.89 13.59 0 13.64 0 13.64C0 13.64 1.17 14.93 3.2 16.56C3.92 17.15 4.76 17.77 5.68 18.39L5.68 18.4C6.61 19.03 7.64 19.66 8.74 20.25C9.52 20.66 10.34 21.07 11.2 21.43C12.01 21.77 12.85 22.08 13.73 22.35C14.04 19.47 14.26 16.61 14.26 14.16C13.64 14.11 13.04 14.06 12.44 14.01C11.77 13.96 11.11 13.93 10.47 13.89ZM34.73 17.87C33.92 17.6 33.09 17.36 32.25 17.13C31.25 16.85 30.23 16.6 29.2 16.36C27.96 16.09 26.72 15.83 25.46 15.61C24.58 15.45 23.7 15.3 22.82 15.16C23.76 17.54 24.57 20.24 25.24 22.95L25.25 22.95C25.56 22.94 26.56 22.92 27.86 22.82C28.63 22.76 29.51 22.67 30.43 22.54C31.03 22.46 31.64 22.36 32.25 22.23C33.1 22.06 33.94 21.85 34.73 21.59C36.36 21.04 37.75 20.28 38.45 19.22C37.26 18.73 36.02 18.27 34.73 17.87Z" fill="#2614A3" fill-opacity="1.000000" fill-rule="nonzero"/>
	<path id="Vector" d="M37.09 14.45C36.57 14.73 35.98 14.88 35.35 14.88C33.3 14.88 31.63 13.21 31.63 11.16C31.63 9.75 32.42 8.52 33.57 7.89C35.22 10.11 36.34 12.47 37.09 14.45ZM31.14 5.11C30.41 6.5 28.96 7.44 27.29 7.44C24.89 7.44 22.95 5.5 22.95 3.1C22.95 2.23 23.19 1.43 23.63 0.76C26.71 1.64 29.18 3.23 31.14 5.11ZM21.71 13.64C21.71 14.11 21.62 14.55 21.46 14.96C18.99 14.62 16.58 14.35 14.3 14.16C14.27 13.99 14.26 13.81 14.26 13.64C14.26 11.59 15.93 9.92 17.98 9.92C20.04 9.92 21.71 11.59 21.71 13.64ZM7.26 2.44C7.76 3.15 8.06 4.02 8.06 4.96C8.06 7.36 6.12 9.3 3.72 9.3C2.87 9.3 2.09 9.06 1.42 8.64C2.45 6.53 4.22 4.16 7.26 2.44Z" fill="#806EFF" fill-opacity="1.000000" fill-rule="nonzero"/>
	<path id="Vector" d="M9.3 3.1C9.3 3.1 11.78 1.24 15.5 1.24C19.22 1.24 10.54 5.58 9.3 3.1Z" fill="#FFFFFF" fill-opacity="1.000000" fill-rule="nonzero"/>
	<path id="Vector" d="M5.65 13.68L3.69 16.95C3.52 16.82 3.36 16.69 3.2 16.56C3.03 16.43 2.87 16.3 2.72 16.17L4.23 13.65C4.46 13.65 4.7 13.65 4.94 13.66C5.17 13.67 5.41 13.67 5.65 13.68ZM8.67 13.8L6.2 18.74C6.02 18.62 5.85 18.51 5.68 18.4L5.68 18.39C5.51 18.27 5.34 18.16 5.17 18.04L7.32 13.73C7.54 13.74 7.77 13.75 8 13.76C8.22 13.77 8.44 13.78 8.67 13.8ZM11.1 13.93L9.31 20.54C9.11 20.45 8.93 20.35 8.74 20.25C8.56 20.15 8.37 20.04 8.18 19.94L9.84 13.85C10.05 13.86 10.26 13.88 10.47 13.89C10.68 13.9 10.89 13.91 11.1 13.93ZM13.06 14.06L11.79 21.66C11.59 21.59 11.4 21.51 11.2 21.43C11.01 21.35 10.81 21.26 10.62 21.17L11.82 13.97C12.02 13.98 12.23 14 12.44 14.01C12.65 14.03 12.85 14.04 13.06 14.06ZM28.5 22.77L26.16 15.74C25.93 15.69 25.69 15.65 25.46 15.61C25.23 15.56 25 15.53 24.77 15.49L27.23 22.87L28.5 22.77ZM31.05 22.45C30.84 22.49 30.64 22.52 30.43 22.54C30.22 22.57 30.02 22.6 29.81 22.62L28.54 16.22C28.76 16.27 28.98 16.31 29.2 16.36C29.42 16.41 29.65 16.47 29.86 16.53L31.05 22.45Z" fill="#3724B9" fill-opacity="1.000000" fill-rule="nonzero"/>
	<path id="Vector" d="M32.87 17.31L32.87 22.1C32.67 22.15 32.46 22.19 32.25 22.23C32.05 22.28 31.83 22.31 31.63 22.35L31.63 16.97C31.84 17.02 32.05 17.07 32.25 17.13C32.46 17.18 32.67 17.25 32.87 17.31Z" fill="#3724B9" fill-opacity="1.000000" fill-rule="nonzero"/>
	<path id="Vector" d="M35.35 18.07L35.35 21.36C35.15 21.44 34.94 21.52 34.73 21.59C34.53 21.66 34.32 21.72 34.11 21.78L34.11 17.67C34.32 17.74 34.53 17.8 34.73 17.87C34.94 17.93 35.15 18 35.35 18.07Z" fill="#3724B9" fill-opacity="1.000000" fill-rule="nonzero"/>
</svg>
