<svg width="21.176514" height="20.000000" viewBox="0 0 21.1765 20" fill="none" xmlns="http://www.w3.org/2000/svg" xmlns:xlink="http://www.w3.org/1999/xlink">
	<desc>
			Created with Pixso.
	</desc>
	<defs/>
	<path id="telegram-icon" d="M15.43 6.37C16.08 5.62 16.72 3.89 14.02 5.99C11.49 7.99 8.94 9.95 6.38 11.88C5.99 12.08 5.57 12.19 5.14 12.2C4.71 12.21 4.29 12.12 3.89 11.94C2.27 11.38 0.37 10.64 0.37 10.64C0.37 10.64 -0.92 9.71 1.29 8.72C1.29 8.72 10.66 4.32 13.91 2.77C15.15 2.15 19.37 0.17 19.37 0.17C19.37 0.17 21.32 -0.7 21.16 1.41C21.11 2.28 20.67 5.31 20.24 8.6C19.59 13.24 18.89 18.32 18.89 18.32C18.89 18.32 18.78 19.75 17.86 20C16.87 19.98 15.92 19.58 15.15 18.88C14.94 18.69 11.09 15.91 9.68 14.54C9.54 14.43 9.42 14.28 9.35 14.11C9.27 13.93 9.23 13.73 9.23 13.54C9.24 13.34 9.29 13.14 9.38 12.97C9.47 12.8 9.59 12.66 9.74 12.56C11.67 10.54 13.57 8.47 15.43 6.37Z" fill="#3724B9" fill-opacity="1.000000" fill-rule="nonzero"/>
</svg>
