<svg width="35" height="35" viewBox="0 0 35 35" fill="none" xmlns="http://www.w3.org/2000/svg">
<rect width="35" height="35" rx="5" fill="white"/>
<path d="M20.8462 14.734C21.4289 14.0652 22.0074 12.5047 19.5794 14.3996C17.3113 16.1911 15.0279 17.9569 12.7293 19.6966C12.3793 19.8783 12.0009 19.9768 11.6169 19.9864C11.2329 19.996 10.8511 19.9164 10.4946 19.7524C9.03777 19.2508 7.33713 18.582 7.33713 18.582C7.33713 18.582 6.17592 17.7448 8.1637 16.8531C8.1637 16.8531 16.5677 12.8948 19.4823 11.5003C20.5992 10.943 24.3879 9.15954 24.3879 9.15954C24.3879 9.15954 26.1371 8.37808 25.9914 10.2742C25.9428 11.0544 25.5543 13.7878 25.1659 16.7416C24.5821 20.9227 23.9508 25.4952 23.9508 25.4952C23.9508 25.4952 23.8537 26.7771 23.0282 27C22.1445 26.9828 21.2907 26.6301 20.6002 25.9968C20.406 25.8296 16.9572 23.3204 15.6936 22.0943C15.5651 21.9944 15.4606 21.8588 15.39 21.7001C15.3194 21.5414 15.2849 21.3648 15.2898 21.1867C15.2946 21.0086 15.3387 20.8348 15.4177 20.6814C15.4968 20.5281 15.6084 20.4002 15.7422 20.3097C17.4753 18.4898 19.1769 16.6309 20.8462 14.734Z" fill="#3724B9"/>
</svg>
