<svg width="16.941895" height="18.463135" viewBox="0 0 16.9419 18.4631" fill="none" xmlns="http://www.w3.org/2000/svg" xmlns:xlink="http://www.w3.org/1999/xlink">
	<desc>
			Created with Pixso.
	</desc>
	<defs/>
	<path id="Vector" d="M0 9.31C0.05 7.75 4.89 2.81 7.3 0.54C7.71 0.15 8.12 -0.01 8.47 0C8.81 -0.01 9.22 0.15 9.63 0.54C12.04 2.81 16.88 7.75 16.94 9.31C17 11.25 12.92 6.91 12.21 6.11C11.54 5.34 10.11 4 9.36 3.25C9.37 3.64 9.38 4.08 9.38 4.66C9.38 5.08 9.38 5.64 9.37 6.25C9.35 7.67 9.33 9.39 9.38 10.42C9.45 11.89 9.63 20.12 8.3 18.16C7.32 16.71 7.19 8.44 7.25 3.57C6.47 4.34 5.31 5.44 4.72 6.11C4.01 6.91 -0.07 11.25 0 9.31Z" fill="#F7F5FF" fill-opacity="1.000000" fill-rule="evenodd"/>
</svg>
