<svg width="35" height="35" viewBox="0 0 35 35" fill="none" xmlns="http://www.w3.org/2000/svg">
<rect width="35" height="35" rx="5" fill="white"/>
<path d="M27.9954 15.934C28.0403 14.6386 27.7559 13.3529 27.1686 12.1962C26.7702 11.7216 26.2172 11.4013 25.606 11.2911C23.0781 11.0626 20.5397 10.969 18.0017 11.0106C15.473 10.9671 12.9437 11.0577 10.4247 11.2821C9.92663 11.3723 9.46574 11.605 9.09823 11.9518C8.28056 12.703 8.18971 13.9882 8.09886 15.0742C7.96705 17.0269 7.96705 18.9863 8.09886 20.939C8.12514 21.5502 8.21651 22.157 8.37142 22.7491C8.48096 23.2062 8.70259 23.6291 9.01646 23.9799C9.38647 24.3451 9.8581 24.591 10.3702 24.6859C12.3288 24.9267 14.3024 25.0265 16.2755 24.9845C19.4553 25.0298 22.2445 24.9845 25.5424 24.7311C26.067 24.6421 26.5519 24.3958 26.9324 24.0252C27.1868 23.7717 27.3768 23.4614 27.4866 23.1201C27.8115 22.1269 27.9711 21.0875 27.9591 20.043C27.9954 19.5361 27.9954 16.4771 27.9954 15.934ZM15.9485 20.586V14.9837L21.3269 17.7984C19.8187 18.6311 17.8291 19.5723 15.9485 20.586Z" fill="#3724B9"/>
</svg>
