<svg width="65.695312" height="20.972229" viewBox="0 0 65.6953 20.9722" fill="none" xmlns="http://www.w3.org/2000/svg" xmlns:xlink="http://www.w3.org/1999/xlink">
	<desc>
			Created with Pixso.
	</desc>
	<defs/>
	<path id="LOGO" d="M43.69 12.92C43.2 12.89 42.85 12.89 42.53 12.82C42.19 12.77 41.86 12.77 41.57 12.67C40.65 12.42 40.09 11.66 40.16 10.84C40.23 9.98 40.8 9.29 41.72 9.09C42.98 8.79 44.36 8.7 46.01 8.5C47.52 8.25 48.75 9.29 48.65 10.92C48.58 13.16 48.43 15.41 48.21 17.66C48.16 18.28 48.01 18.89 47.79 19.46C47.52 20.37 46.8 20.97 46.04 20.97C45.2 20.97 44.65 20.47 44.31 19.68C44.19 19.44 44.09 19.14 44.04 18.89C43.02 19.26 42.06 19.68 41.1 19.86C38.19 20.35 35.59 18.89 34.38 16.08C32.31 11.26 33.42 4.57 37.3 1.31C38.65 0.18 40.16 -0.22 41.82 0.1C43.02 0.32 44.09 0.79 45.1 1.61C46.04 2.32 46.65 3.31 46.88 4.55C47.07 5.46 46.95 6.37 46.16 7.04C45.4 7.71 44.51 7.71 43.72 7.29C43.31 7.06 42.89 6.71 42.47 6.36C41.21 5.33 39.9 4.26 38.78 5.98C37.42 8.2 35.99 16.65 41.2 14.57C42.06 14.23 42.93 13.86 43.69 12.92ZM4.14 17.44C4.08 17.47 4.03 17.49 4 17.51C4.09 16.9 4.18 16.28 4.28 15.66C5.08 10.43 5.91 5 5.36 2.37C5.11 1.21 4.74 0.37 3.26 0.2C1.63 0 -0.08 0.2 0 1.88C0.27 7.49 0.22 11.88 0.02 18.87C-0.05 21.41 3.01 21.16 5.28 20.52C7.36 19.93 10 19.56 12.07 19.58C14.34 19.58 14.69 18.13 14.34 16.05C14.2 15.02 13.9 14.74 12.74 14.62C10.05 14.36 5.27 16.85 4.14 17.44ZM29.07 18.35C32.6 14.23 32.4 6.32 28.85 2.57C26.08 -0.32 21.79 -0.76 18.48 3.21C15.98 6.18 14.58 13.04 18.28 17.88C20.9 21.26 25.93 22 29.07 18.35ZM63.14 18.35C66.67 14.23 66.48 6.32 62.92 2.57C60.15 -0.32 55.86 -0.76 52.55 3.21C50.05 6.18 48.65 13.04 52.35 17.88C54.97 21.26 60.01 22 63.14 18.35ZM23.76 15.61C19.19 14.57 20.01 4.35 25.17 5.19C27.12 5.53 27.98 8.37 27.81 10.89C27.66 12.97 26.23 16.13 23.76 15.61ZM57.83 15.61C53.26 14.57 54.08 4.35 59.24 5.19C61.19 5.53 62.06 8.37 61.88 10.89C61.73 12.97 60.3 16.13 57.83 15.61Z" fill="#FFFFFF" fill-opacity="1.000000" fill-rule="evenodd"/>
</svg>
