<svg width="26.000000" height="18.000000" viewBox="0 0 26 18" fill="none" xmlns="http://www.w3.org/2000/svg" xmlns:xlink="http://www.w3.org/1999/xlink">
	<desc>
			Created with Pixso.
	</desc>
	<defs/>
	<path id="youtube-icon" d="M25.99 6.34C26.05 4.67 25.68 3.02 24.91 1.53C24.4 0.92 23.68 0.51 22.88 0.37C19.6 0.08 16.3 -0.05 13 0.01C9.71 -0.05 6.42 0.07 3.15 0.36C2.5 0.47 1.9 0.77 1.42 1.22C0.36 2.18 0.24 3.84 0.12 5.23C-0.05 7.74 -0.05 10.26 0.12 12.77C0.16 13.56 0.28 14.34 0.48 15.1C0.62 15.69 0.91 16.23 1.32 16.68C1.8 17.15 2.41 17.47 3.08 17.59C5.62 17.9 8.19 18.03 10.75 17.98C14.89 18.03 18.51 17.98 22.8 17.65C23.48 17.54 24.11 17.22 24.61 16.74C24.94 16.42 25.18 16.02 25.33 15.58C25.75 14.3 25.96 12.96 25.94 11.62C25.99 10.97 25.99 7.04 25.99 6.34ZM10.33 12.32L10.33 5.12L17.32 8.74C15.36 9.81 12.77 11.02 10.33 12.32Z" fill="#3724B9" fill-opacity="1.000000" fill-rule="nonzero"/>
</svg>
